%TF.GenerationSoftware,KiCad,Pcbnew,(5.1.7-0-10_14)*%
%TF.CreationDate,2020-10-13T23:49:25+02:00*%
%TF.ProjectId,UPURS Adapter,55505552-5320-4416-9461-707465722e6b,rev?*%
%TF.SameCoordinates,Original*%
%TF.FileFunction,Legend,Top*%
%TF.FilePolarity,Positive*%
%FSLAX46Y46*%
G04 Gerber Fmt 4.6, Leading zero omitted, Abs format (unit mm)*
G04 Created by KiCad (PCBNEW (5.1.7-0-10_14)) date 2020-10-13 23:49:25*
%MOMM*%
%LPD*%
G01*
G04 APERTURE LIST*
%TA.AperFunction,Profile*%
%ADD10C,0.050000*%
%TD*%
%ADD11C,0.120000*%
%ADD12C,0.150000*%
G04 APERTURE END LIST*
D10*
X46736000Y-79375000D02*
X46736000Y-45085000D01*
X78740000Y-79375000D02*
X46736000Y-79375000D01*
X78740000Y-45085000D02*
X78740000Y-79375000D01*
X46736000Y-45085000D02*
X78740000Y-45085000D01*
D11*
%TO.C,D1*%
X58220000Y-55280000D02*
X61160000Y-55280000D01*
X58220000Y-55040000D02*
X61160000Y-55040000D01*
X58220000Y-55160000D02*
X61160000Y-55160000D01*
X59690000Y-49600000D02*
X59690000Y-50620000D01*
X59690000Y-57080000D02*
X59690000Y-56060000D01*
X58220000Y-50620000D02*
X58220000Y-56060000D01*
X61160000Y-50620000D02*
X58220000Y-50620000D01*
X61160000Y-56060000D02*
X61160000Y-50620000D01*
X58220000Y-56060000D02*
X61160000Y-56060000D01*
%TO.C,D2*%
X58220000Y-71300000D02*
X61160000Y-71300000D01*
X61160000Y-71300000D02*
X61160000Y-65860000D01*
X61160000Y-65860000D02*
X58220000Y-65860000D01*
X58220000Y-65860000D02*
X58220000Y-71300000D01*
X59690000Y-72320000D02*
X59690000Y-71300000D01*
X59690000Y-64840000D02*
X59690000Y-65860000D01*
X58220000Y-70400000D02*
X61160000Y-70400000D01*
X58220000Y-70280000D02*
X61160000Y-70280000D01*
X58220000Y-70520000D02*
X61160000Y-70520000D01*
%TO.C,J1*%
X46882000Y-51300000D02*
X47882000Y-50800000D01*
X46882000Y-50300000D02*
X46882000Y-51300000D01*
X47882000Y-50800000D02*
X46882000Y-50300000D01*
X49582000Y-64280000D02*
X48272000Y-64280000D01*
X49582000Y-64280000D02*
X49582000Y-64280000D01*
X49582000Y-77570000D02*
X49582000Y-64280000D01*
X56082000Y-77570000D02*
X49582000Y-77570000D01*
X56082000Y-46890000D02*
X56082000Y-77570000D01*
X49582000Y-46890000D02*
X56082000Y-46890000D01*
X49582000Y-60180000D02*
X49582000Y-46890000D01*
X48272000Y-60180000D02*
X49582000Y-60180000D01*
X48272000Y-78870000D02*
X48272000Y-45590000D01*
X57392000Y-78870000D02*
X48272000Y-78870000D01*
X57392000Y-45590000D02*
X57392000Y-78870000D01*
X48272000Y-45590000D02*
X57392000Y-45590000D01*
%TO.C,J2*%
X65496675Y-56642000D02*
X65063662Y-56892000D01*
X65063662Y-56392000D02*
X65496675Y-56642000D01*
X65063662Y-56892000D02*
X65063662Y-56392000D01*
X65958000Y-46697000D02*
X78298000Y-46697000D01*
X65958000Y-77667000D02*
X65958000Y-46697000D01*
X78298000Y-77667000D02*
X65958000Y-77667000D01*
%TO.C,R1*%
X64870000Y-50070000D02*
X62130000Y-50070000D01*
X62130000Y-50070000D02*
X62130000Y-56610000D01*
X62130000Y-56610000D02*
X64870000Y-56610000D01*
X64870000Y-56610000D02*
X64870000Y-50070000D01*
X63500000Y-49300000D02*
X63500000Y-50070000D01*
X63500000Y-57380000D02*
X63500000Y-56610000D01*
%TO.C,R2*%
X63500000Y-72620000D02*
X63500000Y-71850000D01*
X63500000Y-64540000D02*
X63500000Y-65310000D01*
X64870000Y-71850000D02*
X64870000Y-65310000D01*
X62130000Y-71850000D02*
X64870000Y-71850000D01*
X62130000Y-65310000D02*
X62130000Y-71850000D01*
X64870000Y-65310000D02*
X62130000Y-65310000D01*
%TD*%
%TO.C,D1*%
D12*
X60269380Y-53951095D02*
X59269380Y-53951095D01*
X59269380Y-53713000D01*
X59317000Y-53570142D01*
X59412238Y-53474904D01*
X59507476Y-53427285D01*
X59697952Y-53379666D01*
X59840809Y-53379666D01*
X60031285Y-53427285D01*
X60126523Y-53474904D01*
X60221761Y-53570142D01*
X60269380Y-53713000D01*
X60269380Y-53951095D01*
X60269380Y-52427285D02*
X60269380Y-52998714D01*
X60269380Y-52713000D02*
X59269380Y-52713000D01*
X59412238Y-52808238D01*
X59507476Y-52903476D01*
X59555095Y-52998714D01*
X58042380Y-58681904D02*
X57042380Y-58681904D01*
X58042380Y-58110476D02*
X57470952Y-58539047D01*
X57042380Y-58110476D02*
X57613809Y-58681904D01*
%TO.C,D2*%
X60269380Y-69318095D02*
X59269380Y-69318095D01*
X59269380Y-69080000D01*
X59317000Y-68937142D01*
X59412238Y-68841904D01*
X59507476Y-68794285D01*
X59697952Y-68746666D01*
X59840809Y-68746666D01*
X60031285Y-68794285D01*
X60126523Y-68841904D01*
X60221761Y-68937142D01*
X60269380Y-69080000D01*
X60269380Y-69318095D01*
X59364619Y-68365714D02*
X59317000Y-68318095D01*
X59269380Y-68222857D01*
X59269380Y-67984761D01*
X59317000Y-67889523D01*
X59364619Y-67841904D01*
X59459857Y-67794285D01*
X59555095Y-67794285D01*
X59697952Y-67841904D01*
X60269380Y-68413333D01*
X60269380Y-67794285D01*
X58042380Y-73921904D02*
X57042380Y-73921904D01*
X58042380Y-73350476D02*
X57470952Y-73779047D01*
X57042380Y-73350476D02*
X57613809Y-73921904D01*
%TO.C,J1*%
X52498666Y-47458380D02*
X52498666Y-48172666D01*
X52451047Y-48315523D01*
X52355809Y-48410761D01*
X52212952Y-48458380D01*
X52117714Y-48458380D01*
X53498666Y-48458380D02*
X52927238Y-48458380D01*
X53212952Y-48458380D02*
X53212952Y-47458380D01*
X53117714Y-47601238D01*
X53022476Y-47696476D01*
X52927238Y-47744095D01*
X57221380Y-68539571D02*
X56221380Y-68539571D01*
X57221380Y-68063380D02*
X56221380Y-68063380D01*
X56221380Y-67825285D01*
X56269000Y-67682428D01*
X56364238Y-67587190D01*
X56459476Y-67539571D01*
X56649952Y-67491952D01*
X56792809Y-67491952D01*
X56983285Y-67539571D01*
X57078523Y-67587190D01*
X57173761Y-67682428D01*
X57221380Y-67825285D01*
X57221380Y-68063380D01*
X57126142Y-66491952D02*
X57173761Y-66539571D01*
X57221380Y-66682428D01*
X57221380Y-66777666D01*
X57173761Y-66920523D01*
X57078523Y-67015761D01*
X56983285Y-67063380D01*
X56792809Y-67111000D01*
X56649952Y-67111000D01*
X56459476Y-67063380D01*
X56364238Y-67015761D01*
X56269000Y-66920523D01*
X56221380Y-66777666D01*
X56221380Y-66682428D01*
X56269000Y-66539571D01*
X56316619Y-66491952D01*
X56316619Y-66111000D02*
X56269000Y-66063380D01*
X56221380Y-65968142D01*
X56221380Y-65730047D01*
X56269000Y-65634809D01*
X56316619Y-65587190D01*
X56411857Y-65539571D01*
X56507095Y-65539571D01*
X56649952Y-65587190D01*
X57221380Y-66158619D01*
X57221380Y-65539571D01*
X56221380Y-64920523D02*
X56221380Y-64825285D01*
X56269000Y-64730047D01*
X56316619Y-64682428D01*
X56411857Y-64634809D01*
X56602333Y-64587190D01*
X56840428Y-64587190D01*
X57030904Y-64634809D01*
X57126142Y-64682428D01*
X57173761Y-64730047D01*
X57221380Y-64825285D01*
X57221380Y-64920523D01*
X57173761Y-65015761D01*
X57126142Y-65063380D01*
X57030904Y-65111000D01*
X56840428Y-65158619D01*
X56602333Y-65158619D01*
X56411857Y-65111000D01*
X56316619Y-65063380D01*
X56269000Y-65015761D01*
X56221380Y-64920523D01*
X56221380Y-63396714D02*
X57030904Y-63396714D01*
X57126142Y-63349095D01*
X57173761Y-63301476D01*
X57221380Y-63206238D01*
X57221380Y-63015761D01*
X57173761Y-62920523D01*
X57126142Y-62872904D01*
X57030904Y-62825285D01*
X56221380Y-62825285D01*
X57173761Y-62396714D02*
X57221380Y-62301476D01*
X57221380Y-62111000D01*
X57173761Y-62015761D01*
X57078523Y-61968142D01*
X57030904Y-61968142D01*
X56935666Y-62015761D01*
X56888047Y-62111000D01*
X56888047Y-62253857D01*
X56840428Y-62349095D01*
X56745190Y-62396714D01*
X56697571Y-62396714D01*
X56602333Y-62349095D01*
X56554714Y-62253857D01*
X56554714Y-62111000D01*
X56602333Y-62015761D01*
X57173761Y-61158619D02*
X57221380Y-61253857D01*
X57221380Y-61444333D01*
X57173761Y-61539571D01*
X57078523Y-61587190D01*
X56697571Y-61587190D01*
X56602333Y-61539571D01*
X56554714Y-61444333D01*
X56554714Y-61253857D01*
X56602333Y-61158619D01*
X56697571Y-61111000D01*
X56792809Y-61111000D01*
X56888047Y-61587190D01*
X57221380Y-60682428D02*
X56554714Y-60682428D01*
X56745190Y-60682428D02*
X56649952Y-60634809D01*
X56602333Y-60587190D01*
X56554714Y-60491952D01*
X56554714Y-60396714D01*
X57221380Y-59301476D02*
X56221380Y-59301476D01*
X56221380Y-58920523D01*
X56269000Y-58825285D01*
X56316619Y-58777666D01*
X56411857Y-58730047D01*
X56554714Y-58730047D01*
X56649952Y-58777666D01*
X56697571Y-58825285D01*
X56745190Y-58920523D01*
X56745190Y-59301476D01*
X57221380Y-58158619D02*
X57173761Y-58253857D01*
X57126142Y-58301476D01*
X57030904Y-58349095D01*
X56745190Y-58349095D01*
X56649952Y-58301476D01*
X56602333Y-58253857D01*
X56554714Y-58158619D01*
X56554714Y-58015761D01*
X56602333Y-57920523D01*
X56649952Y-57872904D01*
X56745190Y-57825285D01*
X57030904Y-57825285D01*
X57126142Y-57872904D01*
X57173761Y-57920523D01*
X57221380Y-58015761D01*
X57221380Y-58158619D01*
X57221380Y-57396714D02*
X56554714Y-57396714D01*
X56745190Y-57396714D02*
X56649952Y-57349095D01*
X56602333Y-57301476D01*
X56554714Y-57206238D01*
X56554714Y-57111000D01*
X56554714Y-56920523D02*
X56554714Y-56539571D01*
X56221380Y-56777666D02*
X57078523Y-56777666D01*
X57173761Y-56730047D01*
X57221380Y-56634809D01*
X57221380Y-56539571D01*
%TO.C,J2*%
X73072666Y-47712380D02*
X73072666Y-48426666D01*
X73025047Y-48569523D01*
X72929809Y-48664761D01*
X72786952Y-48712380D01*
X72691714Y-48712380D01*
X73501238Y-47807619D02*
X73548857Y-47760000D01*
X73644095Y-47712380D01*
X73882190Y-47712380D01*
X73977428Y-47760000D01*
X74025047Y-47807619D01*
X74072666Y-47902857D01*
X74072666Y-47998095D01*
X74025047Y-48140952D01*
X73453619Y-48712380D01*
X74072666Y-48712380D01*
X74112380Y-67896285D02*
X73112380Y-67896285D01*
X73112380Y-67658190D01*
X73160000Y-67515333D01*
X73255238Y-67420095D01*
X73350476Y-67372476D01*
X73540952Y-67324857D01*
X73683809Y-67324857D01*
X73874285Y-67372476D01*
X73969523Y-67420095D01*
X74064761Y-67515333D01*
X74112380Y-67658190D01*
X74112380Y-67896285D01*
X73588571Y-66562952D02*
X73636190Y-66420095D01*
X73683809Y-66372476D01*
X73779047Y-66324857D01*
X73921904Y-66324857D01*
X74017142Y-66372476D01*
X74064761Y-66420095D01*
X74112380Y-66515333D01*
X74112380Y-66896285D01*
X73112380Y-66896285D01*
X73112380Y-66562952D01*
X73160000Y-66467714D01*
X73207619Y-66420095D01*
X73302857Y-66372476D01*
X73398095Y-66372476D01*
X73493333Y-66420095D01*
X73540952Y-66467714D01*
X73588571Y-66562952D01*
X73588571Y-66896285D01*
X74112380Y-65848666D02*
X74112380Y-65658190D01*
X74064761Y-65562952D01*
X74017142Y-65515333D01*
X73874285Y-65420095D01*
X73683809Y-65372476D01*
X73302857Y-65372476D01*
X73207619Y-65420095D01*
X73160000Y-65467714D01*
X73112380Y-65562952D01*
X73112380Y-65753428D01*
X73160000Y-65848666D01*
X73207619Y-65896285D01*
X73302857Y-65943904D01*
X73540952Y-65943904D01*
X73636190Y-65896285D01*
X73683809Y-65848666D01*
X73731428Y-65753428D01*
X73731428Y-65562952D01*
X73683809Y-65467714D01*
X73636190Y-65420095D01*
X73540952Y-65372476D01*
X74064761Y-64229619D02*
X74112380Y-64086761D01*
X74112380Y-63848666D01*
X74064761Y-63753428D01*
X74017142Y-63705809D01*
X73921904Y-63658190D01*
X73826666Y-63658190D01*
X73731428Y-63705809D01*
X73683809Y-63753428D01*
X73636190Y-63848666D01*
X73588571Y-64039142D01*
X73540952Y-64134380D01*
X73493333Y-64182000D01*
X73398095Y-64229619D01*
X73302857Y-64229619D01*
X73207619Y-64182000D01*
X73160000Y-64134380D01*
X73112380Y-64039142D01*
X73112380Y-63801047D01*
X73160000Y-63658190D01*
X74064761Y-62848666D02*
X74112380Y-62943904D01*
X74112380Y-63134380D01*
X74064761Y-63229619D01*
X73969523Y-63277238D01*
X73588571Y-63277238D01*
X73493333Y-63229619D01*
X73445714Y-63134380D01*
X73445714Y-62943904D01*
X73493333Y-62848666D01*
X73588571Y-62801047D01*
X73683809Y-62801047D01*
X73779047Y-63277238D01*
X74112380Y-62372476D02*
X73445714Y-62372476D01*
X73636190Y-62372476D02*
X73540952Y-62324857D01*
X73493333Y-62277238D01*
X73445714Y-62182000D01*
X73445714Y-62086761D01*
X74112380Y-61753428D02*
X73445714Y-61753428D01*
X73112380Y-61753428D02*
X73160000Y-61801047D01*
X73207619Y-61753428D01*
X73160000Y-61705809D01*
X73112380Y-61753428D01*
X73207619Y-61753428D01*
X74112380Y-60848666D02*
X73588571Y-60848666D01*
X73493333Y-60896285D01*
X73445714Y-60991523D01*
X73445714Y-61182000D01*
X73493333Y-61277238D01*
X74064761Y-60848666D02*
X74112380Y-60943904D01*
X74112380Y-61182000D01*
X74064761Y-61277238D01*
X73969523Y-61324857D01*
X73874285Y-61324857D01*
X73779047Y-61277238D01*
X73731428Y-61182000D01*
X73731428Y-60943904D01*
X73683809Y-60848666D01*
X74112380Y-60229619D02*
X74064761Y-60324857D01*
X73969523Y-60372476D01*
X73112380Y-60372476D01*
X74112380Y-59086761D02*
X73112380Y-59086761D01*
X73112380Y-58705809D01*
X73160000Y-58610571D01*
X73207619Y-58562952D01*
X73302857Y-58515333D01*
X73445714Y-58515333D01*
X73540952Y-58562952D01*
X73588571Y-58610571D01*
X73636190Y-58705809D01*
X73636190Y-59086761D01*
X74112380Y-57943904D02*
X74064761Y-58039142D01*
X74017142Y-58086761D01*
X73921904Y-58134380D01*
X73636190Y-58134380D01*
X73540952Y-58086761D01*
X73493333Y-58039142D01*
X73445714Y-57943904D01*
X73445714Y-57801047D01*
X73493333Y-57705809D01*
X73540952Y-57658190D01*
X73636190Y-57610571D01*
X73921904Y-57610571D01*
X74017142Y-57658190D01*
X74064761Y-57705809D01*
X74112380Y-57801047D01*
X74112380Y-57943904D01*
X74112380Y-57182000D02*
X73445714Y-57182000D01*
X73636190Y-57182000D02*
X73540952Y-57134380D01*
X73493333Y-57086761D01*
X73445714Y-56991523D01*
X73445714Y-56896285D01*
X73445714Y-56705809D02*
X73445714Y-56324857D01*
X73112380Y-56562952D02*
X73969523Y-56562952D01*
X74064761Y-56515333D01*
X74112380Y-56420095D01*
X74112380Y-56324857D01*
%TO.C,R1*%
X64079380Y-53506666D02*
X63603190Y-53840000D01*
X64079380Y-54078095D02*
X63079380Y-54078095D01*
X63079380Y-53697142D01*
X63127000Y-53601904D01*
X63174619Y-53554285D01*
X63269857Y-53506666D01*
X63412714Y-53506666D01*
X63507952Y-53554285D01*
X63555571Y-53601904D01*
X63603190Y-53697142D01*
X63603190Y-54078095D01*
X64079380Y-52554285D02*
X64079380Y-53125714D01*
X64079380Y-52840000D02*
X63079380Y-52840000D01*
X63222238Y-52935238D01*
X63317476Y-53030476D01*
X63365095Y-53125714D01*
%TO.C,R2*%
X64079380Y-68746666D02*
X63603190Y-69080000D01*
X64079380Y-69318095D02*
X63079380Y-69318095D01*
X63079380Y-68937142D01*
X63127000Y-68841904D01*
X63174619Y-68794285D01*
X63269857Y-68746666D01*
X63412714Y-68746666D01*
X63507952Y-68794285D01*
X63555571Y-68841904D01*
X63603190Y-68937142D01*
X63603190Y-69318095D01*
X63174619Y-68365714D02*
X63127000Y-68318095D01*
X63079380Y-68222857D01*
X63079380Y-67984761D01*
X63127000Y-67889523D01*
X63174619Y-67841904D01*
X63269857Y-67794285D01*
X63365095Y-67794285D01*
X63507952Y-67841904D01*
X64079380Y-68413333D01*
X64079380Y-67794285D01*
%TD*%
M02*
