%TF.GenerationSoftware,KiCad,Pcbnew,(5.1.7-0-10_14)*%
%TF.CreationDate,2020-10-13T23:49:25+02:00*%
%TF.ProjectId,UPURS Adapter,55505552-5320-4416-9461-707465722e6b,rev?*%
%TF.SameCoordinates,Original*%
%TF.FileFunction,Soldermask,Top*%
%TF.FilePolarity,Negative*%
%FSLAX46Y46*%
G04 Gerber Fmt 4.6, Leading zero omitted, Abs format (unit mm)*
G04 Created by KiCad (PCBNEW (5.1.7-0-10_14)) date 2020-10-13 23:49:25*
%MOMM*%
%LPD*%
G01*
G04 APERTURE LIST*
%TA.AperFunction,Profile*%
%ADD10C,0.050000*%
%TD*%
%ADD11R,2.200000X2.200000*%
%ADD12O,2.200000X2.200000*%
%ADD13C,1.700000*%
%ADD14R,1.600000X1.600000*%
%ADD15C,1.600000*%
%ADD16C,4.000000*%
%ADD17O,1.600000X1.600000*%
G04 APERTURE END LIST*
D10*
X46736000Y-79375000D02*
X46736000Y-45085000D01*
X78740000Y-79375000D02*
X46736000Y-79375000D01*
X78740000Y-45085000D02*
X78740000Y-79375000D01*
X46736000Y-45085000D02*
X78740000Y-45085000D01*
D11*
%TO.C,D1*%
X59690000Y-58420000D03*
D12*
X59690000Y-48260000D03*
%TD*%
%TO.C,D2*%
X59690000Y-63500000D03*
D11*
X59690000Y-73660000D03*
%TD*%
%TO.C,J1*%
G36*
G01*
X50712000Y-51400000D02*
X50712000Y-50200000D01*
G75*
G02*
X50962000Y-49950000I250000J0D01*
G01*
X52162000Y-49950000D01*
G75*
G02*
X52412000Y-50200000I0J-250000D01*
G01*
X52412000Y-51400000D01*
G75*
G02*
X52162000Y-51650000I-250000J0D01*
G01*
X50962000Y-51650000D01*
G75*
G02*
X50712000Y-51400000I0J250000D01*
G01*
G37*
D13*
X51562000Y-53340000D03*
X51562000Y-55880000D03*
X51562000Y-58420000D03*
X51562000Y-60960000D03*
X51562000Y-63500000D03*
X51562000Y-66040000D03*
X51562000Y-68580000D03*
X51562000Y-71120000D03*
X51562000Y-73660000D03*
X54102000Y-50800000D03*
X54102000Y-53340000D03*
X54102000Y-55880000D03*
X54102000Y-58420000D03*
X54102000Y-60960000D03*
X54102000Y-63500000D03*
X54102000Y-66040000D03*
X54102000Y-68580000D03*
X54102000Y-71120000D03*
X54102000Y-73660000D03*
%TD*%
D14*
%TO.C,J2*%
X67818000Y-56642000D03*
D15*
X67818000Y-59412000D03*
X67818000Y-62182000D03*
X67818000Y-64952000D03*
X67818000Y-67722000D03*
X70658000Y-58027000D03*
X70658000Y-60797000D03*
X70658000Y-63567000D03*
X70658000Y-66337000D03*
D16*
X69238000Y-74682000D03*
X69238000Y-49682000D03*
%TD*%
D17*
%TO.C,R1*%
X63500000Y-58420000D03*
D15*
X63500000Y-48260000D03*
%TD*%
%TO.C,R2*%
X63500000Y-63500000D03*
D17*
X63500000Y-73660000D03*
%TD*%
M02*
