%TF.GenerationSoftware,KiCad,Pcbnew,(5.1.7-0-10_14)*%
%TF.CreationDate,2020-10-13T23:49:25+02:00*%
%TF.ProjectId,UPURS Adapter,55505552-5320-4416-9461-707465722e6b,rev?*%
%TF.SameCoordinates,Original*%
%TF.FileFunction,Copper,L2,Bot*%
%TF.FilePolarity,Positive*%
%FSLAX46Y46*%
G04 Gerber Fmt 4.6, Leading zero omitted, Abs format (unit mm)*
G04 Created by KiCad (PCBNEW (5.1.7-0-10_14)) date 2020-10-13 23:49:25*
%MOMM*%
%LPD*%
G01*
G04 APERTURE LIST*
%TA.AperFunction,Profile*%
%ADD10C,0.050000*%
%TD*%
%TA.AperFunction,ComponentPad*%
%ADD11R,2.200000X2.200000*%
%TD*%
%TA.AperFunction,ComponentPad*%
%ADD12O,2.200000X2.200000*%
%TD*%
%TA.AperFunction,ComponentPad*%
%ADD13C,1.700000*%
%TD*%
%TA.AperFunction,ComponentPad*%
%ADD14R,1.600000X1.600000*%
%TD*%
%TA.AperFunction,ComponentPad*%
%ADD15C,1.600000*%
%TD*%
%TA.AperFunction,ComponentPad*%
%ADD16C,4.000000*%
%TD*%
%TA.AperFunction,ComponentPad*%
%ADD17O,1.600000X1.600000*%
%TD*%
%TA.AperFunction,Conductor*%
%ADD18C,0.254000*%
%TD*%
%TA.AperFunction,Conductor*%
%ADD19C,0.150000*%
%TD*%
G04 APERTURE END LIST*
D10*
X46736000Y-79375000D02*
X46736000Y-45085000D01*
X78740000Y-79375000D02*
X46736000Y-79375000D01*
X78740000Y-45085000D02*
X78740000Y-79375000D01*
X46736000Y-45085000D02*
X78740000Y-45085000D01*
D11*
%TO.P,D1,1*%
%TO.N,/RTS*%
X59690000Y-58420000D03*
D12*
%TO.P,D1,2*%
%TO.N,GND*%
X59690000Y-48260000D03*
%TD*%
%TO.P,D2,2*%
%TO.N,GND*%
X59690000Y-63500000D03*
D11*
%TO.P,D2,1*%
%TO.N,/TxD*%
X59690000Y-73660000D03*
%TD*%
%TO.P,J1,1*%
%TO.N,N/C*%
%TA.AperFunction,ComponentPad*%
G36*
G01*
X50712000Y-51400000D02*
X50712000Y-50200000D01*
G75*
G02*
X50962000Y-49950000I250000J0D01*
G01*
X52162000Y-49950000D01*
G75*
G02*
X52412000Y-50200000I0J-250000D01*
G01*
X52412000Y-51400000D01*
G75*
G02*
X52162000Y-51650000I-250000J0D01*
G01*
X50962000Y-51650000D01*
G75*
G02*
X50712000Y-51400000I0J250000D01*
G01*
G37*
%TD.AperFunction*%
D13*
%TO.P,J1,3*%
X51562000Y-53340000D03*
%TO.P,J1,5*%
%TO.N,GND*%
X51562000Y-55880000D03*
%TO.P,J1,7*%
X51562000Y-58420000D03*
%TO.P,J1,9*%
X51562000Y-60960000D03*
%TO.P,J1,11*%
X51562000Y-63500000D03*
%TO.P,J1,13*%
X51562000Y-66040000D03*
%TO.P,J1,15*%
X51562000Y-68580000D03*
%TO.P,J1,17*%
X51562000Y-71120000D03*
%TO.P,J1,19*%
X51562000Y-73660000D03*
%TO.P,J1,2*%
%TO.N,N/C*%
X54102000Y-50800000D03*
%TO.P,J1,4*%
X54102000Y-53340000D03*
%TO.P,J1,6*%
%TO.N,/RxD*%
X54102000Y-55880000D03*
%TO.P,J1,8*%
%TO.N,/RTS*%
X54102000Y-58420000D03*
%TO.P,J1,10*%
%TO.N,N/C*%
X54102000Y-60960000D03*
%TO.P,J1,12*%
X54102000Y-63500000D03*
%TO.P,J1,14*%
X54102000Y-66040000D03*
%TO.P,J1,16*%
X54102000Y-68580000D03*
%TO.P,J1,18*%
%TO.N,/CTS*%
X54102000Y-71120000D03*
%TO.P,J1,20*%
%TO.N,/TxD*%
X54102000Y-73660000D03*
%TD*%
D14*
%TO.P,J2,1*%
%TO.N,N/C*%
X67818000Y-56642000D03*
D15*
%TO.P,J2,2*%
%TO.N,/RxD*%
X67818000Y-59412000D03*
%TO.P,J2,3*%
%TO.N,/TxD-PC*%
X67818000Y-62182000D03*
%TO.P,J2,4*%
%TO.N,Net-(J2-Pad4)*%
X67818000Y-64952000D03*
%TO.P,J2,5*%
%TO.N,GND*%
X67818000Y-67722000D03*
%TO.P,J2,6*%
%TO.N,Net-(J2-Pad4)*%
X70658000Y-58027000D03*
%TO.P,J2,7*%
%TO.N,/RTS-PC*%
X70658000Y-60797000D03*
%TO.P,J2,8*%
%TO.N,/CTS*%
X70658000Y-63567000D03*
%TO.P,J2,9*%
%TO.N,N/C*%
X70658000Y-66337000D03*
D16*
%TO.P,J2,0*%
%TO.N,Net-(J2-Pad0)*%
X69238000Y-74682000D03*
X69238000Y-49682000D03*
%TD*%
D17*
%TO.P,R1,2*%
%TO.N,/RTS*%
X63500000Y-58420000D03*
D15*
%TO.P,R1,1*%
%TO.N,/RTS-PC*%
X63500000Y-48260000D03*
%TD*%
%TO.P,R2,1*%
%TO.N,/TxD-PC*%
X63500000Y-63500000D03*
D17*
%TO.P,R2,2*%
%TO.N,/TxD*%
X63500000Y-73660000D03*
%TD*%
D18*
%TO.N,GND*%
X78080001Y-78715000D02*
X47396000Y-78715000D01*
X47396000Y-74688397D01*
X50713208Y-74688397D01*
X50790843Y-74937472D01*
X51054883Y-75063371D01*
X51338411Y-75135339D01*
X51630531Y-75150611D01*
X51920019Y-75108599D01*
X52195747Y-75010919D01*
X52333157Y-74937472D01*
X52410792Y-74688397D01*
X51562000Y-73839605D01*
X50713208Y-74688397D01*
X47396000Y-74688397D01*
X47396000Y-73728531D01*
X50071389Y-73728531D01*
X50113401Y-74018019D01*
X50211081Y-74293747D01*
X50284528Y-74431157D01*
X50533603Y-74508792D01*
X51382395Y-73660000D01*
X50533603Y-72811208D01*
X50284528Y-72888843D01*
X50158629Y-73152883D01*
X50086661Y-73436411D01*
X50071389Y-73728531D01*
X47396000Y-73728531D01*
X47396000Y-72148397D01*
X50713208Y-72148397D01*
X50788514Y-72390000D01*
X50713208Y-72631603D01*
X51562000Y-73480395D01*
X52410792Y-72631603D01*
X52335486Y-72390000D01*
X52410792Y-72148397D01*
X51562000Y-71299605D01*
X50713208Y-72148397D01*
X47396000Y-72148397D01*
X47396000Y-71188531D01*
X50071389Y-71188531D01*
X50113401Y-71478019D01*
X50211081Y-71753747D01*
X50284528Y-71891157D01*
X50533603Y-71968792D01*
X51382395Y-71120000D01*
X50533603Y-70271208D01*
X50284528Y-70348843D01*
X50158629Y-70612883D01*
X50086661Y-70896411D01*
X50071389Y-71188531D01*
X47396000Y-71188531D01*
X47396000Y-69608397D01*
X50713208Y-69608397D01*
X50788514Y-69850000D01*
X50713208Y-70091603D01*
X51562000Y-70940395D01*
X52410792Y-70091603D01*
X52335486Y-69850000D01*
X52410792Y-69608397D01*
X51562000Y-68759605D01*
X50713208Y-69608397D01*
X47396000Y-69608397D01*
X47396000Y-68648531D01*
X50071389Y-68648531D01*
X50113401Y-68938019D01*
X50211081Y-69213747D01*
X50284528Y-69351157D01*
X50533603Y-69428792D01*
X51382395Y-68580000D01*
X50533603Y-67731208D01*
X50284528Y-67808843D01*
X50158629Y-68072883D01*
X50086661Y-68356411D01*
X50071389Y-68648531D01*
X47396000Y-68648531D01*
X47396000Y-67068397D01*
X50713208Y-67068397D01*
X50788514Y-67310000D01*
X50713208Y-67551603D01*
X51562000Y-68400395D01*
X52410792Y-67551603D01*
X52335486Y-67310000D01*
X52410792Y-67068397D01*
X51562000Y-66219605D01*
X50713208Y-67068397D01*
X47396000Y-67068397D01*
X47396000Y-66108531D01*
X50071389Y-66108531D01*
X50113401Y-66398019D01*
X50211081Y-66673747D01*
X50284528Y-66811157D01*
X50533603Y-66888792D01*
X51382395Y-66040000D01*
X50533603Y-65191208D01*
X50284528Y-65268843D01*
X50158629Y-65532883D01*
X50086661Y-65816411D01*
X50071389Y-66108531D01*
X47396000Y-66108531D01*
X47396000Y-64528397D01*
X50713208Y-64528397D01*
X50788514Y-64770000D01*
X50713208Y-65011603D01*
X51562000Y-65860395D01*
X52410792Y-65011603D01*
X52335486Y-64770000D01*
X52410792Y-64528397D01*
X51562000Y-63679605D01*
X50713208Y-64528397D01*
X47396000Y-64528397D01*
X47396000Y-63568531D01*
X50071389Y-63568531D01*
X50113401Y-63858019D01*
X50211081Y-64133747D01*
X50284528Y-64271157D01*
X50533603Y-64348792D01*
X51382395Y-63500000D01*
X50533603Y-62651208D01*
X50284528Y-62728843D01*
X50158629Y-62992883D01*
X50086661Y-63276411D01*
X50071389Y-63568531D01*
X47396000Y-63568531D01*
X47396000Y-61988397D01*
X50713208Y-61988397D01*
X50788514Y-62230000D01*
X50713208Y-62471603D01*
X51562000Y-63320395D01*
X52410792Y-62471603D01*
X52335486Y-62230000D01*
X52410792Y-61988397D01*
X51562000Y-61139605D01*
X50713208Y-61988397D01*
X47396000Y-61988397D01*
X47396000Y-61028531D01*
X50071389Y-61028531D01*
X50113401Y-61318019D01*
X50211081Y-61593747D01*
X50284528Y-61731157D01*
X50533603Y-61808792D01*
X51382395Y-60960000D01*
X50533603Y-60111208D01*
X50284528Y-60188843D01*
X50158629Y-60452883D01*
X50086661Y-60736411D01*
X50071389Y-61028531D01*
X47396000Y-61028531D01*
X47396000Y-59448397D01*
X50713208Y-59448397D01*
X50788514Y-59690000D01*
X50713208Y-59931603D01*
X51562000Y-60780395D01*
X52410792Y-59931603D01*
X52335486Y-59690000D01*
X52410792Y-59448397D01*
X51562000Y-58599605D01*
X50713208Y-59448397D01*
X47396000Y-59448397D01*
X47396000Y-58488531D01*
X50071389Y-58488531D01*
X50113401Y-58778019D01*
X50211081Y-59053747D01*
X50284528Y-59191157D01*
X50533603Y-59268792D01*
X51382395Y-58420000D01*
X50533603Y-57571208D01*
X50284528Y-57648843D01*
X50158629Y-57912883D01*
X50086661Y-58196411D01*
X50071389Y-58488531D01*
X47396000Y-58488531D01*
X47396000Y-56908397D01*
X50713208Y-56908397D01*
X50788514Y-57150000D01*
X50713208Y-57391603D01*
X51562000Y-58240395D01*
X52410792Y-57391603D01*
X52335486Y-57150000D01*
X52410792Y-56908397D01*
X51562000Y-56059605D01*
X50713208Y-56908397D01*
X47396000Y-56908397D01*
X47396000Y-55948531D01*
X50071389Y-55948531D01*
X50113401Y-56238019D01*
X50211081Y-56513747D01*
X50284528Y-56651157D01*
X50533603Y-56728792D01*
X51382395Y-55880000D01*
X50533603Y-55031208D01*
X50284528Y-55108843D01*
X50158629Y-55372883D01*
X50086661Y-55656411D01*
X50071389Y-55948531D01*
X47396000Y-55948531D01*
X47396000Y-50200000D01*
X50073928Y-50200000D01*
X50073928Y-51400000D01*
X50090992Y-51573254D01*
X50141528Y-51739850D01*
X50223595Y-51893386D01*
X50334038Y-52027962D01*
X50468614Y-52138405D01*
X50595608Y-52206285D01*
X50408525Y-52393368D01*
X50246010Y-52636589D01*
X50134068Y-52906842D01*
X50077000Y-53193740D01*
X50077000Y-53486260D01*
X50134068Y-53773158D01*
X50246010Y-54043411D01*
X50408525Y-54286632D01*
X50615368Y-54493475D01*
X50788729Y-54609311D01*
X50713208Y-54851603D01*
X51562000Y-55700395D01*
X52410792Y-54851603D01*
X52335271Y-54609311D01*
X52508632Y-54493475D01*
X52715475Y-54286632D01*
X52832000Y-54112240D01*
X52948525Y-54286632D01*
X53155368Y-54493475D01*
X53329760Y-54610000D01*
X53155368Y-54726525D01*
X52948525Y-54933368D01*
X52832689Y-55106729D01*
X52590397Y-55031208D01*
X51741605Y-55880000D01*
X52590397Y-56728792D01*
X52832689Y-56653271D01*
X52948525Y-56826632D01*
X53155368Y-57033475D01*
X53329760Y-57150000D01*
X53155368Y-57266525D01*
X52948525Y-57473368D01*
X52832689Y-57646729D01*
X52590397Y-57571208D01*
X51741605Y-58420000D01*
X52590397Y-59268792D01*
X52832689Y-59193271D01*
X52948525Y-59366632D01*
X53155368Y-59573475D01*
X53329760Y-59690000D01*
X53155368Y-59806525D01*
X52948525Y-60013368D01*
X52832689Y-60186729D01*
X52590397Y-60111208D01*
X51741605Y-60960000D01*
X52590397Y-61808792D01*
X52832689Y-61733271D01*
X52948525Y-61906632D01*
X53155368Y-62113475D01*
X53329760Y-62230000D01*
X53155368Y-62346525D01*
X52948525Y-62553368D01*
X52832689Y-62726729D01*
X52590397Y-62651208D01*
X51741605Y-63500000D01*
X52590397Y-64348792D01*
X52832689Y-64273271D01*
X52948525Y-64446632D01*
X53155368Y-64653475D01*
X53329760Y-64770000D01*
X53155368Y-64886525D01*
X52948525Y-65093368D01*
X52832689Y-65266729D01*
X52590397Y-65191208D01*
X51741605Y-66040000D01*
X52590397Y-66888792D01*
X52832689Y-66813271D01*
X52948525Y-66986632D01*
X53155368Y-67193475D01*
X53329760Y-67310000D01*
X53155368Y-67426525D01*
X52948525Y-67633368D01*
X52832689Y-67806729D01*
X52590397Y-67731208D01*
X51741605Y-68580000D01*
X52590397Y-69428792D01*
X52832689Y-69353271D01*
X52948525Y-69526632D01*
X53155368Y-69733475D01*
X53329760Y-69850000D01*
X53155368Y-69966525D01*
X52948525Y-70173368D01*
X52832689Y-70346729D01*
X52590397Y-70271208D01*
X51741605Y-71120000D01*
X52590397Y-71968792D01*
X52832689Y-71893271D01*
X52948525Y-72066632D01*
X53155368Y-72273475D01*
X53329760Y-72390000D01*
X53155368Y-72506525D01*
X52948525Y-72713368D01*
X52832689Y-72886729D01*
X52590397Y-72811208D01*
X51741605Y-73660000D01*
X52590397Y-74508792D01*
X52832689Y-74433271D01*
X52948525Y-74606632D01*
X53155368Y-74813475D01*
X53398589Y-74975990D01*
X53668842Y-75087932D01*
X53955740Y-75145000D01*
X54248260Y-75145000D01*
X54535158Y-75087932D01*
X54805411Y-74975990D01*
X55048632Y-74813475D01*
X55255475Y-74606632D01*
X55417990Y-74363411D01*
X55529932Y-74093158D01*
X55587000Y-73806260D01*
X55587000Y-73513740D01*
X55529932Y-73226842D01*
X55417990Y-72956589D01*
X55255475Y-72713368D01*
X55102107Y-72560000D01*
X57951928Y-72560000D01*
X57951928Y-74760000D01*
X57964188Y-74884482D01*
X58000498Y-75004180D01*
X58059463Y-75114494D01*
X58138815Y-75211185D01*
X58235506Y-75290537D01*
X58345820Y-75349502D01*
X58465518Y-75385812D01*
X58590000Y-75398072D01*
X60790000Y-75398072D01*
X60914482Y-75385812D01*
X61034180Y-75349502D01*
X61144494Y-75290537D01*
X61241185Y-75211185D01*
X61320537Y-75114494D01*
X61379502Y-75004180D01*
X61415812Y-74884482D01*
X61428072Y-74760000D01*
X61428072Y-73518665D01*
X62065000Y-73518665D01*
X62065000Y-73801335D01*
X62120147Y-74078574D01*
X62228320Y-74339727D01*
X62385363Y-74574759D01*
X62585241Y-74774637D01*
X62820273Y-74931680D01*
X63081426Y-75039853D01*
X63358665Y-75095000D01*
X63641335Y-75095000D01*
X63918574Y-75039853D01*
X64179727Y-74931680D01*
X64414759Y-74774637D01*
X64614637Y-74574759D01*
X64716389Y-74422475D01*
X66603000Y-74422475D01*
X66603000Y-74941525D01*
X66704261Y-75450601D01*
X66902893Y-75930141D01*
X67191262Y-76361715D01*
X67558285Y-76728738D01*
X67989859Y-77017107D01*
X68469399Y-77215739D01*
X68978475Y-77317000D01*
X69497525Y-77317000D01*
X70006601Y-77215739D01*
X70486141Y-77017107D01*
X70917715Y-76728738D01*
X71284738Y-76361715D01*
X71573107Y-75930141D01*
X71771739Y-75450601D01*
X71873000Y-74941525D01*
X71873000Y-74422475D01*
X71771739Y-73913399D01*
X71573107Y-73433859D01*
X71284738Y-73002285D01*
X70917715Y-72635262D01*
X70486141Y-72346893D01*
X70006601Y-72148261D01*
X69497525Y-72047000D01*
X68978475Y-72047000D01*
X68469399Y-72148261D01*
X67989859Y-72346893D01*
X67558285Y-72635262D01*
X67191262Y-73002285D01*
X66902893Y-73433859D01*
X66704261Y-73913399D01*
X66603000Y-74422475D01*
X64716389Y-74422475D01*
X64771680Y-74339727D01*
X64879853Y-74078574D01*
X64935000Y-73801335D01*
X64935000Y-73518665D01*
X64879853Y-73241426D01*
X64771680Y-72980273D01*
X64614637Y-72745241D01*
X64414759Y-72545363D01*
X64179727Y-72388320D01*
X63918574Y-72280147D01*
X63641335Y-72225000D01*
X63358665Y-72225000D01*
X63081426Y-72280147D01*
X62820273Y-72388320D01*
X62585241Y-72545363D01*
X62385363Y-72745241D01*
X62228320Y-72980273D01*
X62120147Y-73241426D01*
X62065000Y-73518665D01*
X61428072Y-73518665D01*
X61428072Y-72560000D01*
X61415812Y-72435518D01*
X61379502Y-72315820D01*
X61320537Y-72205506D01*
X61241185Y-72108815D01*
X61144494Y-72029463D01*
X61034180Y-71970498D01*
X60914482Y-71934188D01*
X60790000Y-71921928D01*
X58590000Y-71921928D01*
X58465518Y-71934188D01*
X58345820Y-71970498D01*
X58235506Y-72029463D01*
X58138815Y-72108815D01*
X58059463Y-72205506D01*
X58000498Y-72315820D01*
X57964188Y-72435518D01*
X57951928Y-72560000D01*
X55102107Y-72560000D01*
X55048632Y-72506525D01*
X54874240Y-72390000D01*
X55048632Y-72273475D01*
X55255475Y-72066632D01*
X55417990Y-71823411D01*
X55529932Y-71553158D01*
X55587000Y-71266260D01*
X55587000Y-70973740D01*
X55529932Y-70686842D01*
X55417990Y-70416589D01*
X55255475Y-70173368D01*
X55048632Y-69966525D01*
X54874240Y-69850000D01*
X55048632Y-69733475D01*
X55255475Y-69526632D01*
X55417990Y-69283411D01*
X55529932Y-69013158D01*
X55587000Y-68726260D01*
X55587000Y-68714702D01*
X67004903Y-68714702D01*
X67076486Y-68958671D01*
X67331996Y-69079571D01*
X67606184Y-69148300D01*
X67888512Y-69162217D01*
X68168130Y-69120787D01*
X68434292Y-69025603D01*
X68559514Y-68958671D01*
X68631097Y-68714702D01*
X67818000Y-67901605D01*
X67004903Y-68714702D01*
X55587000Y-68714702D01*
X55587000Y-68433740D01*
X55529932Y-68146842D01*
X55417990Y-67876589D01*
X55361812Y-67792512D01*
X66377783Y-67792512D01*
X66419213Y-68072130D01*
X66514397Y-68338292D01*
X66581329Y-68463514D01*
X66825298Y-68535097D01*
X67638395Y-67722000D01*
X67997605Y-67722000D01*
X68810702Y-68535097D01*
X69054671Y-68463514D01*
X69175571Y-68208004D01*
X69244300Y-67933816D01*
X69258217Y-67651488D01*
X69216787Y-67371870D01*
X69121603Y-67105708D01*
X69054671Y-66980486D01*
X68810702Y-66908903D01*
X67997605Y-67722000D01*
X67638395Y-67722000D01*
X66825298Y-66908903D01*
X66581329Y-66980486D01*
X66460429Y-67235996D01*
X66391700Y-67510184D01*
X66377783Y-67792512D01*
X55361812Y-67792512D01*
X55255475Y-67633368D01*
X55048632Y-67426525D01*
X54874240Y-67310000D01*
X55048632Y-67193475D01*
X55255475Y-66986632D01*
X55417990Y-66743411D01*
X55529932Y-66473158D01*
X55587000Y-66186260D01*
X55587000Y-65893740D01*
X55529932Y-65606842D01*
X55417990Y-65336589D01*
X55255475Y-65093368D01*
X55048632Y-64886525D01*
X54874240Y-64770000D01*
X55048632Y-64653475D01*
X55255475Y-64446632D01*
X55417990Y-64203411D01*
X55529932Y-63933158D01*
X55537298Y-63896123D01*
X58000821Y-63896123D01*
X58110558Y-64218054D01*
X58280992Y-64512391D01*
X58505573Y-64767822D01*
X58775671Y-64974531D01*
X59080906Y-65124575D01*
X59293878Y-65189175D01*
X59563000Y-65071125D01*
X59563000Y-63627000D01*
X59817000Y-63627000D01*
X59817000Y-65071125D01*
X60086122Y-65189175D01*
X60299094Y-65124575D01*
X60604329Y-64974531D01*
X60874427Y-64767822D01*
X61099008Y-64512391D01*
X61269442Y-64218054D01*
X61379179Y-63896123D01*
X61261600Y-63627000D01*
X59817000Y-63627000D01*
X59563000Y-63627000D01*
X58118400Y-63627000D01*
X58000821Y-63896123D01*
X55537298Y-63896123D01*
X55587000Y-63646260D01*
X55587000Y-63353740D01*
X55537299Y-63103877D01*
X58000821Y-63103877D01*
X58118400Y-63373000D01*
X59563000Y-63373000D01*
X59563000Y-61928875D01*
X59817000Y-61928875D01*
X59817000Y-63373000D01*
X61261600Y-63373000D01*
X61267862Y-63358665D01*
X62065000Y-63358665D01*
X62065000Y-63641335D01*
X62120147Y-63918574D01*
X62228320Y-64179727D01*
X62385363Y-64414759D01*
X62585241Y-64614637D01*
X62820273Y-64771680D01*
X63081426Y-64879853D01*
X63358665Y-64935000D01*
X63641335Y-64935000D01*
X63918574Y-64879853D01*
X64179727Y-64771680D01*
X64414759Y-64614637D01*
X64614637Y-64414759D01*
X64771680Y-64179727D01*
X64879853Y-63918574D01*
X64935000Y-63641335D01*
X64935000Y-63358665D01*
X64879853Y-63081426D01*
X64771680Y-62820273D01*
X64614637Y-62585241D01*
X64414759Y-62385363D01*
X64179727Y-62228320D01*
X63918574Y-62120147D01*
X63641335Y-62065000D01*
X63358665Y-62065000D01*
X63081426Y-62120147D01*
X62820273Y-62228320D01*
X62585241Y-62385363D01*
X62385363Y-62585241D01*
X62228320Y-62820273D01*
X62120147Y-63081426D01*
X62065000Y-63358665D01*
X61267862Y-63358665D01*
X61379179Y-63103877D01*
X61269442Y-62781946D01*
X61099008Y-62487609D01*
X60874427Y-62232178D01*
X60604329Y-62025469D01*
X60299094Y-61875425D01*
X60086122Y-61810825D01*
X59817000Y-61928875D01*
X59563000Y-61928875D01*
X59293878Y-61810825D01*
X59080906Y-61875425D01*
X58775671Y-62025469D01*
X58505573Y-62232178D01*
X58280992Y-62487609D01*
X58110558Y-62781946D01*
X58000821Y-63103877D01*
X55537299Y-63103877D01*
X55529932Y-63066842D01*
X55417990Y-62796589D01*
X55255475Y-62553368D01*
X55048632Y-62346525D01*
X54874240Y-62230000D01*
X55048632Y-62113475D01*
X55255475Y-61906632D01*
X55417990Y-61663411D01*
X55529932Y-61393158D01*
X55587000Y-61106260D01*
X55587000Y-60813740D01*
X55529932Y-60526842D01*
X55417990Y-60256589D01*
X55255475Y-60013368D01*
X55048632Y-59806525D01*
X54874240Y-59690000D01*
X55048632Y-59573475D01*
X55255475Y-59366632D01*
X55417990Y-59123411D01*
X55529932Y-58853158D01*
X55587000Y-58566260D01*
X55587000Y-58273740D01*
X55529932Y-57986842D01*
X55417990Y-57716589D01*
X55255475Y-57473368D01*
X55102107Y-57320000D01*
X57951928Y-57320000D01*
X57951928Y-59520000D01*
X57964188Y-59644482D01*
X58000498Y-59764180D01*
X58059463Y-59874494D01*
X58138815Y-59971185D01*
X58235506Y-60050537D01*
X58345820Y-60109502D01*
X58465518Y-60145812D01*
X58590000Y-60158072D01*
X60790000Y-60158072D01*
X60914482Y-60145812D01*
X61034180Y-60109502D01*
X61144494Y-60050537D01*
X61241185Y-59971185D01*
X61320537Y-59874494D01*
X61379502Y-59764180D01*
X61415812Y-59644482D01*
X61428072Y-59520000D01*
X61428072Y-58278665D01*
X62065000Y-58278665D01*
X62065000Y-58561335D01*
X62120147Y-58838574D01*
X62228320Y-59099727D01*
X62385363Y-59334759D01*
X62585241Y-59534637D01*
X62820273Y-59691680D01*
X63081426Y-59799853D01*
X63358665Y-59855000D01*
X63641335Y-59855000D01*
X63918574Y-59799853D01*
X64179727Y-59691680D01*
X64414759Y-59534637D01*
X64614637Y-59334759D01*
X64771680Y-59099727D01*
X64879853Y-58838574D01*
X64935000Y-58561335D01*
X64935000Y-58278665D01*
X64879853Y-58001426D01*
X64771680Y-57740273D01*
X64614637Y-57505241D01*
X64414759Y-57305363D01*
X64179727Y-57148320D01*
X63918574Y-57040147D01*
X63641335Y-56985000D01*
X63358665Y-56985000D01*
X63081426Y-57040147D01*
X62820273Y-57148320D01*
X62585241Y-57305363D01*
X62385363Y-57505241D01*
X62228320Y-57740273D01*
X62120147Y-58001426D01*
X62065000Y-58278665D01*
X61428072Y-58278665D01*
X61428072Y-57320000D01*
X61415812Y-57195518D01*
X61379502Y-57075820D01*
X61320537Y-56965506D01*
X61241185Y-56868815D01*
X61144494Y-56789463D01*
X61034180Y-56730498D01*
X60914482Y-56694188D01*
X60790000Y-56681928D01*
X58590000Y-56681928D01*
X58465518Y-56694188D01*
X58345820Y-56730498D01*
X58235506Y-56789463D01*
X58138815Y-56868815D01*
X58059463Y-56965506D01*
X58000498Y-57075820D01*
X57964188Y-57195518D01*
X57951928Y-57320000D01*
X55102107Y-57320000D01*
X55048632Y-57266525D01*
X54874240Y-57150000D01*
X55048632Y-57033475D01*
X55255475Y-56826632D01*
X55417990Y-56583411D01*
X55529932Y-56313158D01*
X55587000Y-56026260D01*
X55587000Y-55842000D01*
X66379928Y-55842000D01*
X66379928Y-57442000D01*
X66392188Y-57566482D01*
X66428498Y-57686180D01*
X66487463Y-57796494D01*
X66566815Y-57893185D01*
X66663506Y-57972537D01*
X66773820Y-58031502D01*
X66893518Y-58067812D01*
X67018000Y-58080072D01*
X67283725Y-58080072D01*
X67138273Y-58140320D01*
X66903241Y-58297363D01*
X66703363Y-58497241D01*
X66546320Y-58732273D01*
X66438147Y-58993426D01*
X66383000Y-59270665D01*
X66383000Y-59553335D01*
X66438147Y-59830574D01*
X66546320Y-60091727D01*
X66703363Y-60326759D01*
X66903241Y-60526637D01*
X67138273Y-60683680D01*
X67399426Y-60791853D01*
X67425301Y-60797000D01*
X67399426Y-60802147D01*
X67138273Y-60910320D01*
X66903241Y-61067363D01*
X66703363Y-61267241D01*
X66546320Y-61502273D01*
X66438147Y-61763426D01*
X66383000Y-62040665D01*
X66383000Y-62323335D01*
X66438147Y-62600574D01*
X66546320Y-62861727D01*
X66703363Y-63096759D01*
X66903241Y-63296637D01*
X67138273Y-63453680D01*
X67399426Y-63561853D01*
X67425301Y-63567000D01*
X67399426Y-63572147D01*
X67138273Y-63680320D01*
X66903241Y-63837363D01*
X66703363Y-64037241D01*
X66546320Y-64272273D01*
X66438147Y-64533426D01*
X66383000Y-64810665D01*
X66383000Y-65093335D01*
X66438147Y-65370574D01*
X66546320Y-65631727D01*
X66703363Y-65866759D01*
X66903241Y-66066637D01*
X67138273Y-66223680D01*
X67399426Y-66331853D01*
X67427882Y-66337513D01*
X67201708Y-66418397D01*
X67076486Y-66485329D01*
X67004903Y-66729298D01*
X67818000Y-67542395D01*
X68631097Y-66729298D01*
X68559514Y-66485329D01*
X68304004Y-66364429D01*
X68201711Y-66338788D01*
X68236574Y-66331853D01*
X68497727Y-66223680D01*
X68732759Y-66066637D01*
X68932637Y-65866759D01*
X69089680Y-65631727D01*
X69197853Y-65370574D01*
X69253000Y-65093335D01*
X69253000Y-64810665D01*
X69197853Y-64533426D01*
X69089680Y-64272273D01*
X68932637Y-64037241D01*
X68732759Y-63837363D01*
X68497727Y-63680320D01*
X68236574Y-63572147D01*
X68210699Y-63567000D01*
X68236574Y-63561853D01*
X68497727Y-63453680D01*
X68732759Y-63296637D01*
X68932637Y-63096759D01*
X69089680Y-62861727D01*
X69197853Y-62600574D01*
X69253000Y-62323335D01*
X69253000Y-62040665D01*
X69197853Y-61763426D01*
X69089680Y-61502273D01*
X68932637Y-61267241D01*
X68732759Y-61067363D01*
X68497727Y-60910320D01*
X68236574Y-60802147D01*
X68210699Y-60797000D01*
X68236574Y-60791853D01*
X68497727Y-60683680D01*
X68732759Y-60526637D01*
X68932637Y-60326759D01*
X69089680Y-60091727D01*
X69197853Y-59830574D01*
X69253000Y-59553335D01*
X69253000Y-59270665D01*
X69197853Y-58993426D01*
X69089680Y-58732273D01*
X68932637Y-58497241D01*
X68732759Y-58297363D01*
X68497727Y-58140320D01*
X68352275Y-58080072D01*
X68618000Y-58080072D01*
X68742482Y-58067812D01*
X68862180Y-58031502D01*
X68972494Y-57972537D01*
X69069185Y-57893185D01*
X69075356Y-57885665D01*
X69223000Y-57885665D01*
X69223000Y-58168335D01*
X69278147Y-58445574D01*
X69386320Y-58706727D01*
X69543363Y-58941759D01*
X69743241Y-59141637D01*
X69978273Y-59298680D01*
X70239426Y-59406853D01*
X70265301Y-59412000D01*
X70239426Y-59417147D01*
X69978273Y-59525320D01*
X69743241Y-59682363D01*
X69543363Y-59882241D01*
X69386320Y-60117273D01*
X69278147Y-60378426D01*
X69223000Y-60655665D01*
X69223000Y-60938335D01*
X69278147Y-61215574D01*
X69386320Y-61476727D01*
X69543363Y-61711759D01*
X69743241Y-61911637D01*
X69978273Y-62068680D01*
X70239426Y-62176853D01*
X70265301Y-62182000D01*
X70239426Y-62187147D01*
X69978273Y-62295320D01*
X69743241Y-62452363D01*
X69543363Y-62652241D01*
X69386320Y-62887273D01*
X69278147Y-63148426D01*
X69223000Y-63425665D01*
X69223000Y-63708335D01*
X69278147Y-63985574D01*
X69386320Y-64246727D01*
X69543363Y-64481759D01*
X69743241Y-64681637D01*
X69978273Y-64838680D01*
X70239426Y-64946853D01*
X70265301Y-64952000D01*
X70239426Y-64957147D01*
X69978273Y-65065320D01*
X69743241Y-65222363D01*
X69543363Y-65422241D01*
X69386320Y-65657273D01*
X69278147Y-65918426D01*
X69223000Y-66195665D01*
X69223000Y-66478335D01*
X69278147Y-66755574D01*
X69386320Y-67016727D01*
X69543363Y-67251759D01*
X69743241Y-67451637D01*
X69978273Y-67608680D01*
X70239426Y-67716853D01*
X70516665Y-67772000D01*
X70799335Y-67772000D01*
X71076574Y-67716853D01*
X71337727Y-67608680D01*
X71572759Y-67451637D01*
X71772637Y-67251759D01*
X71929680Y-67016727D01*
X72037853Y-66755574D01*
X72093000Y-66478335D01*
X72093000Y-66195665D01*
X72037853Y-65918426D01*
X71929680Y-65657273D01*
X71772637Y-65422241D01*
X71572759Y-65222363D01*
X71337727Y-65065320D01*
X71076574Y-64957147D01*
X71050699Y-64952000D01*
X71076574Y-64946853D01*
X71337727Y-64838680D01*
X71572759Y-64681637D01*
X71772637Y-64481759D01*
X71929680Y-64246727D01*
X72037853Y-63985574D01*
X72093000Y-63708335D01*
X72093000Y-63425665D01*
X72037853Y-63148426D01*
X71929680Y-62887273D01*
X71772637Y-62652241D01*
X71572759Y-62452363D01*
X71337727Y-62295320D01*
X71076574Y-62187147D01*
X71050699Y-62182000D01*
X71076574Y-62176853D01*
X71337727Y-62068680D01*
X71572759Y-61911637D01*
X71772637Y-61711759D01*
X71929680Y-61476727D01*
X72037853Y-61215574D01*
X72093000Y-60938335D01*
X72093000Y-60655665D01*
X72037853Y-60378426D01*
X71929680Y-60117273D01*
X71772637Y-59882241D01*
X71572759Y-59682363D01*
X71337727Y-59525320D01*
X71076574Y-59417147D01*
X71050699Y-59412000D01*
X71076574Y-59406853D01*
X71337727Y-59298680D01*
X71572759Y-59141637D01*
X71772637Y-58941759D01*
X71929680Y-58706727D01*
X72037853Y-58445574D01*
X72093000Y-58168335D01*
X72093000Y-57885665D01*
X72037853Y-57608426D01*
X71929680Y-57347273D01*
X71772637Y-57112241D01*
X71572759Y-56912363D01*
X71337727Y-56755320D01*
X71076574Y-56647147D01*
X70799335Y-56592000D01*
X70516665Y-56592000D01*
X70239426Y-56647147D01*
X69978273Y-56755320D01*
X69743241Y-56912363D01*
X69543363Y-57112241D01*
X69386320Y-57347273D01*
X69278147Y-57608426D01*
X69223000Y-57885665D01*
X69075356Y-57885665D01*
X69148537Y-57796494D01*
X69207502Y-57686180D01*
X69243812Y-57566482D01*
X69256072Y-57442000D01*
X69256072Y-55842000D01*
X69243812Y-55717518D01*
X69207502Y-55597820D01*
X69148537Y-55487506D01*
X69069185Y-55390815D01*
X68972494Y-55311463D01*
X68862180Y-55252498D01*
X68742482Y-55216188D01*
X68618000Y-55203928D01*
X67018000Y-55203928D01*
X66893518Y-55216188D01*
X66773820Y-55252498D01*
X66663506Y-55311463D01*
X66566815Y-55390815D01*
X66487463Y-55487506D01*
X66428498Y-55597820D01*
X66392188Y-55717518D01*
X66379928Y-55842000D01*
X55587000Y-55842000D01*
X55587000Y-55733740D01*
X55529932Y-55446842D01*
X55417990Y-55176589D01*
X55255475Y-54933368D01*
X55048632Y-54726525D01*
X54874240Y-54610000D01*
X55048632Y-54493475D01*
X55255475Y-54286632D01*
X55417990Y-54043411D01*
X55529932Y-53773158D01*
X55587000Y-53486260D01*
X55587000Y-53193740D01*
X55529932Y-52906842D01*
X55417990Y-52636589D01*
X55255475Y-52393368D01*
X55048632Y-52186525D01*
X54874240Y-52070000D01*
X55048632Y-51953475D01*
X55255475Y-51746632D01*
X55417990Y-51503411D01*
X55529932Y-51233158D01*
X55587000Y-50946260D01*
X55587000Y-50653740D01*
X55529932Y-50366842D01*
X55417990Y-50096589D01*
X55255475Y-49853368D01*
X55048632Y-49646525D01*
X54805411Y-49484010D01*
X54535158Y-49372068D01*
X54248260Y-49315000D01*
X53955740Y-49315000D01*
X53668842Y-49372068D01*
X53398589Y-49484010D01*
X53155368Y-49646525D01*
X52968285Y-49833608D01*
X52900405Y-49706614D01*
X52789962Y-49572038D01*
X52655386Y-49461595D01*
X52501850Y-49379528D01*
X52335254Y-49328992D01*
X52162000Y-49311928D01*
X50962000Y-49311928D01*
X50788746Y-49328992D01*
X50622150Y-49379528D01*
X50468614Y-49461595D01*
X50334038Y-49572038D01*
X50223595Y-49706614D01*
X50141528Y-49860150D01*
X50090992Y-50026746D01*
X50073928Y-50200000D01*
X47396000Y-50200000D01*
X47396000Y-48656123D01*
X58000821Y-48656123D01*
X58110558Y-48978054D01*
X58280992Y-49272391D01*
X58505573Y-49527822D01*
X58775671Y-49734531D01*
X59080906Y-49884575D01*
X59293878Y-49949175D01*
X59563000Y-49831125D01*
X59563000Y-48387000D01*
X59817000Y-48387000D01*
X59817000Y-49831125D01*
X60086122Y-49949175D01*
X60299094Y-49884575D01*
X60604329Y-49734531D01*
X60874427Y-49527822D01*
X61099008Y-49272391D01*
X61269442Y-48978054D01*
X61379179Y-48656123D01*
X61261600Y-48387000D01*
X59817000Y-48387000D01*
X59563000Y-48387000D01*
X58118400Y-48387000D01*
X58000821Y-48656123D01*
X47396000Y-48656123D01*
X47396000Y-47863877D01*
X58000821Y-47863877D01*
X58118400Y-48133000D01*
X59563000Y-48133000D01*
X59563000Y-46688875D01*
X59817000Y-46688875D01*
X59817000Y-48133000D01*
X61261600Y-48133000D01*
X61267862Y-48118665D01*
X62065000Y-48118665D01*
X62065000Y-48401335D01*
X62120147Y-48678574D01*
X62228320Y-48939727D01*
X62385363Y-49174759D01*
X62585241Y-49374637D01*
X62820273Y-49531680D01*
X63081426Y-49639853D01*
X63358665Y-49695000D01*
X63641335Y-49695000D01*
X63918574Y-49639853D01*
X64179727Y-49531680D01*
X64343164Y-49422475D01*
X66603000Y-49422475D01*
X66603000Y-49941525D01*
X66704261Y-50450601D01*
X66902893Y-50930141D01*
X67191262Y-51361715D01*
X67558285Y-51728738D01*
X67989859Y-52017107D01*
X68469399Y-52215739D01*
X68978475Y-52317000D01*
X69497525Y-52317000D01*
X70006601Y-52215739D01*
X70486141Y-52017107D01*
X70917715Y-51728738D01*
X71284738Y-51361715D01*
X71573107Y-50930141D01*
X71771739Y-50450601D01*
X71873000Y-49941525D01*
X71873000Y-49422475D01*
X71771739Y-48913399D01*
X71573107Y-48433859D01*
X71284738Y-48002285D01*
X70917715Y-47635262D01*
X70486141Y-47346893D01*
X70006601Y-47148261D01*
X69497525Y-47047000D01*
X68978475Y-47047000D01*
X68469399Y-47148261D01*
X67989859Y-47346893D01*
X67558285Y-47635262D01*
X67191262Y-48002285D01*
X66902893Y-48433859D01*
X66704261Y-48913399D01*
X66603000Y-49422475D01*
X64343164Y-49422475D01*
X64414759Y-49374637D01*
X64614637Y-49174759D01*
X64771680Y-48939727D01*
X64879853Y-48678574D01*
X64935000Y-48401335D01*
X64935000Y-48118665D01*
X64879853Y-47841426D01*
X64771680Y-47580273D01*
X64614637Y-47345241D01*
X64414759Y-47145363D01*
X64179727Y-46988320D01*
X63918574Y-46880147D01*
X63641335Y-46825000D01*
X63358665Y-46825000D01*
X63081426Y-46880147D01*
X62820273Y-46988320D01*
X62585241Y-47145363D01*
X62385363Y-47345241D01*
X62228320Y-47580273D01*
X62120147Y-47841426D01*
X62065000Y-48118665D01*
X61267862Y-48118665D01*
X61379179Y-47863877D01*
X61269442Y-47541946D01*
X61099008Y-47247609D01*
X60874427Y-46992178D01*
X60604329Y-46785469D01*
X60299094Y-46635425D01*
X60086122Y-46570825D01*
X59817000Y-46688875D01*
X59563000Y-46688875D01*
X59293878Y-46570825D01*
X59080906Y-46635425D01*
X58775671Y-46785469D01*
X58505573Y-46992178D01*
X58280992Y-47247609D01*
X58110558Y-47541946D01*
X58000821Y-47863877D01*
X47396000Y-47863877D01*
X47396000Y-45745000D01*
X78080000Y-45745000D01*
X78080001Y-78715000D01*
%TA.AperFunction,Conductor*%
D19*
G36*
X78080001Y-78715000D02*
G01*
X47396000Y-78715000D01*
X47396000Y-74688397D01*
X50713208Y-74688397D01*
X50790843Y-74937472D01*
X51054883Y-75063371D01*
X51338411Y-75135339D01*
X51630531Y-75150611D01*
X51920019Y-75108599D01*
X52195747Y-75010919D01*
X52333157Y-74937472D01*
X52410792Y-74688397D01*
X51562000Y-73839605D01*
X50713208Y-74688397D01*
X47396000Y-74688397D01*
X47396000Y-73728531D01*
X50071389Y-73728531D01*
X50113401Y-74018019D01*
X50211081Y-74293747D01*
X50284528Y-74431157D01*
X50533603Y-74508792D01*
X51382395Y-73660000D01*
X50533603Y-72811208D01*
X50284528Y-72888843D01*
X50158629Y-73152883D01*
X50086661Y-73436411D01*
X50071389Y-73728531D01*
X47396000Y-73728531D01*
X47396000Y-72148397D01*
X50713208Y-72148397D01*
X50788514Y-72390000D01*
X50713208Y-72631603D01*
X51562000Y-73480395D01*
X52410792Y-72631603D01*
X52335486Y-72390000D01*
X52410792Y-72148397D01*
X51562000Y-71299605D01*
X50713208Y-72148397D01*
X47396000Y-72148397D01*
X47396000Y-71188531D01*
X50071389Y-71188531D01*
X50113401Y-71478019D01*
X50211081Y-71753747D01*
X50284528Y-71891157D01*
X50533603Y-71968792D01*
X51382395Y-71120000D01*
X50533603Y-70271208D01*
X50284528Y-70348843D01*
X50158629Y-70612883D01*
X50086661Y-70896411D01*
X50071389Y-71188531D01*
X47396000Y-71188531D01*
X47396000Y-69608397D01*
X50713208Y-69608397D01*
X50788514Y-69850000D01*
X50713208Y-70091603D01*
X51562000Y-70940395D01*
X52410792Y-70091603D01*
X52335486Y-69850000D01*
X52410792Y-69608397D01*
X51562000Y-68759605D01*
X50713208Y-69608397D01*
X47396000Y-69608397D01*
X47396000Y-68648531D01*
X50071389Y-68648531D01*
X50113401Y-68938019D01*
X50211081Y-69213747D01*
X50284528Y-69351157D01*
X50533603Y-69428792D01*
X51382395Y-68580000D01*
X50533603Y-67731208D01*
X50284528Y-67808843D01*
X50158629Y-68072883D01*
X50086661Y-68356411D01*
X50071389Y-68648531D01*
X47396000Y-68648531D01*
X47396000Y-67068397D01*
X50713208Y-67068397D01*
X50788514Y-67310000D01*
X50713208Y-67551603D01*
X51562000Y-68400395D01*
X52410792Y-67551603D01*
X52335486Y-67310000D01*
X52410792Y-67068397D01*
X51562000Y-66219605D01*
X50713208Y-67068397D01*
X47396000Y-67068397D01*
X47396000Y-66108531D01*
X50071389Y-66108531D01*
X50113401Y-66398019D01*
X50211081Y-66673747D01*
X50284528Y-66811157D01*
X50533603Y-66888792D01*
X51382395Y-66040000D01*
X50533603Y-65191208D01*
X50284528Y-65268843D01*
X50158629Y-65532883D01*
X50086661Y-65816411D01*
X50071389Y-66108531D01*
X47396000Y-66108531D01*
X47396000Y-64528397D01*
X50713208Y-64528397D01*
X50788514Y-64770000D01*
X50713208Y-65011603D01*
X51562000Y-65860395D01*
X52410792Y-65011603D01*
X52335486Y-64770000D01*
X52410792Y-64528397D01*
X51562000Y-63679605D01*
X50713208Y-64528397D01*
X47396000Y-64528397D01*
X47396000Y-63568531D01*
X50071389Y-63568531D01*
X50113401Y-63858019D01*
X50211081Y-64133747D01*
X50284528Y-64271157D01*
X50533603Y-64348792D01*
X51382395Y-63500000D01*
X50533603Y-62651208D01*
X50284528Y-62728843D01*
X50158629Y-62992883D01*
X50086661Y-63276411D01*
X50071389Y-63568531D01*
X47396000Y-63568531D01*
X47396000Y-61988397D01*
X50713208Y-61988397D01*
X50788514Y-62230000D01*
X50713208Y-62471603D01*
X51562000Y-63320395D01*
X52410792Y-62471603D01*
X52335486Y-62230000D01*
X52410792Y-61988397D01*
X51562000Y-61139605D01*
X50713208Y-61988397D01*
X47396000Y-61988397D01*
X47396000Y-61028531D01*
X50071389Y-61028531D01*
X50113401Y-61318019D01*
X50211081Y-61593747D01*
X50284528Y-61731157D01*
X50533603Y-61808792D01*
X51382395Y-60960000D01*
X50533603Y-60111208D01*
X50284528Y-60188843D01*
X50158629Y-60452883D01*
X50086661Y-60736411D01*
X50071389Y-61028531D01*
X47396000Y-61028531D01*
X47396000Y-59448397D01*
X50713208Y-59448397D01*
X50788514Y-59690000D01*
X50713208Y-59931603D01*
X51562000Y-60780395D01*
X52410792Y-59931603D01*
X52335486Y-59690000D01*
X52410792Y-59448397D01*
X51562000Y-58599605D01*
X50713208Y-59448397D01*
X47396000Y-59448397D01*
X47396000Y-58488531D01*
X50071389Y-58488531D01*
X50113401Y-58778019D01*
X50211081Y-59053747D01*
X50284528Y-59191157D01*
X50533603Y-59268792D01*
X51382395Y-58420000D01*
X50533603Y-57571208D01*
X50284528Y-57648843D01*
X50158629Y-57912883D01*
X50086661Y-58196411D01*
X50071389Y-58488531D01*
X47396000Y-58488531D01*
X47396000Y-56908397D01*
X50713208Y-56908397D01*
X50788514Y-57150000D01*
X50713208Y-57391603D01*
X51562000Y-58240395D01*
X52410792Y-57391603D01*
X52335486Y-57150000D01*
X52410792Y-56908397D01*
X51562000Y-56059605D01*
X50713208Y-56908397D01*
X47396000Y-56908397D01*
X47396000Y-55948531D01*
X50071389Y-55948531D01*
X50113401Y-56238019D01*
X50211081Y-56513747D01*
X50284528Y-56651157D01*
X50533603Y-56728792D01*
X51382395Y-55880000D01*
X50533603Y-55031208D01*
X50284528Y-55108843D01*
X50158629Y-55372883D01*
X50086661Y-55656411D01*
X50071389Y-55948531D01*
X47396000Y-55948531D01*
X47396000Y-50200000D01*
X50073928Y-50200000D01*
X50073928Y-51400000D01*
X50090992Y-51573254D01*
X50141528Y-51739850D01*
X50223595Y-51893386D01*
X50334038Y-52027962D01*
X50468614Y-52138405D01*
X50595608Y-52206285D01*
X50408525Y-52393368D01*
X50246010Y-52636589D01*
X50134068Y-52906842D01*
X50077000Y-53193740D01*
X50077000Y-53486260D01*
X50134068Y-53773158D01*
X50246010Y-54043411D01*
X50408525Y-54286632D01*
X50615368Y-54493475D01*
X50788729Y-54609311D01*
X50713208Y-54851603D01*
X51562000Y-55700395D01*
X52410792Y-54851603D01*
X52335271Y-54609311D01*
X52508632Y-54493475D01*
X52715475Y-54286632D01*
X52832000Y-54112240D01*
X52948525Y-54286632D01*
X53155368Y-54493475D01*
X53329760Y-54610000D01*
X53155368Y-54726525D01*
X52948525Y-54933368D01*
X52832689Y-55106729D01*
X52590397Y-55031208D01*
X51741605Y-55880000D01*
X52590397Y-56728792D01*
X52832689Y-56653271D01*
X52948525Y-56826632D01*
X53155368Y-57033475D01*
X53329760Y-57150000D01*
X53155368Y-57266525D01*
X52948525Y-57473368D01*
X52832689Y-57646729D01*
X52590397Y-57571208D01*
X51741605Y-58420000D01*
X52590397Y-59268792D01*
X52832689Y-59193271D01*
X52948525Y-59366632D01*
X53155368Y-59573475D01*
X53329760Y-59690000D01*
X53155368Y-59806525D01*
X52948525Y-60013368D01*
X52832689Y-60186729D01*
X52590397Y-60111208D01*
X51741605Y-60960000D01*
X52590397Y-61808792D01*
X52832689Y-61733271D01*
X52948525Y-61906632D01*
X53155368Y-62113475D01*
X53329760Y-62230000D01*
X53155368Y-62346525D01*
X52948525Y-62553368D01*
X52832689Y-62726729D01*
X52590397Y-62651208D01*
X51741605Y-63500000D01*
X52590397Y-64348792D01*
X52832689Y-64273271D01*
X52948525Y-64446632D01*
X53155368Y-64653475D01*
X53329760Y-64770000D01*
X53155368Y-64886525D01*
X52948525Y-65093368D01*
X52832689Y-65266729D01*
X52590397Y-65191208D01*
X51741605Y-66040000D01*
X52590397Y-66888792D01*
X52832689Y-66813271D01*
X52948525Y-66986632D01*
X53155368Y-67193475D01*
X53329760Y-67310000D01*
X53155368Y-67426525D01*
X52948525Y-67633368D01*
X52832689Y-67806729D01*
X52590397Y-67731208D01*
X51741605Y-68580000D01*
X52590397Y-69428792D01*
X52832689Y-69353271D01*
X52948525Y-69526632D01*
X53155368Y-69733475D01*
X53329760Y-69850000D01*
X53155368Y-69966525D01*
X52948525Y-70173368D01*
X52832689Y-70346729D01*
X52590397Y-70271208D01*
X51741605Y-71120000D01*
X52590397Y-71968792D01*
X52832689Y-71893271D01*
X52948525Y-72066632D01*
X53155368Y-72273475D01*
X53329760Y-72390000D01*
X53155368Y-72506525D01*
X52948525Y-72713368D01*
X52832689Y-72886729D01*
X52590397Y-72811208D01*
X51741605Y-73660000D01*
X52590397Y-74508792D01*
X52832689Y-74433271D01*
X52948525Y-74606632D01*
X53155368Y-74813475D01*
X53398589Y-74975990D01*
X53668842Y-75087932D01*
X53955740Y-75145000D01*
X54248260Y-75145000D01*
X54535158Y-75087932D01*
X54805411Y-74975990D01*
X55048632Y-74813475D01*
X55255475Y-74606632D01*
X55417990Y-74363411D01*
X55529932Y-74093158D01*
X55587000Y-73806260D01*
X55587000Y-73513740D01*
X55529932Y-73226842D01*
X55417990Y-72956589D01*
X55255475Y-72713368D01*
X55102107Y-72560000D01*
X57951928Y-72560000D01*
X57951928Y-74760000D01*
X57964188Y-74884482D01*
X58000498Y-75004180D01*
X58059463Y-75114494D01*
X58138815Y-75211185D01*
X58235506Y-75290537D01*
X58345820Y-75349502D01*
X58465518Y-75385812D01*
X58590000Y-75398072D01*
X60790000Y-75398072D01*
X60914482Y-75385812D01*
X61034180Y-75349502D01*
X61144494Y-75290537D01*
X61241185Y-75211185D01*
X61320537Y-75114494D01*
X61379502Y-75004180D01*
X61415812Y-74884482D01*
X61428072Y-74760000D01*
X61428072Y-73518665D01*
X62065000Y-73518665D01*
X62065000Y-73801335D01*
X62120147Y-74078574D01*
X62228320Y-74339727D01*
X62385363Y-74574759D01*
X62585241Y-74774637D01*
X62820273Y-74931680D01*
X63081426Y-75039853D01*
X63358665Y-75095000D01*
X63641335Y-75095000D01*
X63918574Y-75039853D01*
X64179727Y-74931680D01*
X64414759Y-74774637D01*
X64614637Y-74574759D01*
X64716389Y-74422475D01*
X66603000Y-74422475D01*
X66603000Y-74941525D01*
X66704261Y-75450601D01*
X66902893Y-75930141D01*
X67191262Y-76361715D01*
X67558285Y-76728738D01*
X67989859Y-77017107D01*
X68469399Y-77215739D01*
X68978475Y-77317000D01*
X69497525Y-77317000D01*
X70006601Y-77215739D01*
X70486141Y-77017107D01*
X70917715Y-76728738D01*
X71284738Y-76361715D01*
X71573107Y-75930141D01*
X71771739Y-75450601D01*
X71873000Y-74941525D01*
X71873000Y-74422475D01*
X71771739Y-73913399D01*
X71573107Y-73433859D01*
X71284738Y-73002285D01*
X70917715Y-72635262D01*
X70486141Y-72346893D01*
X70006601Y-72148261D01*
X69497525Y-72047000D01*
X68978475Y-72047000D01*
X68469399Y-72148261D01*
X67989859Y-72346893D01*
X67558285Y-72635262D01*
X67191262Y-73002285D01*
X66902893Y-73433859D01*
X66704261Y-73913399D01*
X66603000Y-74422475D01*
X64716389Y-74422475D01*
X64771680Y-74339727D01*
X64879853Y-74078574D01*
X64935000Y-73801335D01*
X64935000Y-73518665D01*
X64879853Y-73241426D01*
X64771680Y-72980273D01*
X64614637Y-72745241D01*
X64414759Y-72545363D01*
X64179727Y-72388320D01*
X63918574Y-72280147D01*
X63641335Y-72225000D01*
X63358665Y-72225000D01*
X63081426Y-72280147D01*
X62820273Y-72388320D01*
X62585241Y-72545363D01*
X62385363Y-72745241D01*
X62228320Y-72980273D01*
X62120147Y-73241426D01*
X62065000Y-73518665D01*
X61428072Y-73518665D01*
X61428072Y-72560000D01*
X61415812Y-72435518D01*
X61379502Y-72315820D01*
X61320537Y-72205506D01*
X61241185Y-72108815D01*
X61144494Y-72029463D01*
X61034180Y-71970498D01*
X60914482Y-71934188D01*
X60790000Y-71921928D01*
X58590000Y-71921928D01*
X58465518Y-71934188D01*
X58345820Y-71970498D01*
X58235506Y-72029463D01*
X58138815Y-72108815D01*
X58059463Y-72205506D01*
X58000498Y-72315820D01*
X57964188Y-72435518D01*
X57951928Y-72560000D01*
X55102107Y-72560000D01*
X55048632Y-72506525D01*
X54874240Y-72390000D01*
X55048632Y-72273475D01*
X55255475Y-72066632D01*
X55417990Y-71823411D01*
X55529932Y-71553158D01*
X55587000Y-71266260D01*
X55587000Y-70973740D01*
X55529932Y-70686842D01*
X55417990Y-70416589D01*
X55255475Y-70173368D01*
X55048632Y-69966525D01*
X54874240Y-69850000D01*
X55048632Y-69733475D01*
X55255475Y-69526632D01*
X55417990Y-69283411D01*
X55529932Y-69013158D01*
X55587000Y-68726260D01*
X55587000Y-68714702D01*
X67004903Y-68714702D01*
X67076486Y-68958671D01*
X67331996Y-69079571D01*
X67606184Y-69148300D01*
X67888512Y-69162217D01*
X68168130Y-69120787D01*
X68434292Y-69025603D01*
X68559514Y-68958671D01*
X68631097Y-68714702D01*
X67818000Y-67901605D01*
X67004903Y-68714702D01*
X55587000Y-68714702D01*
X55587000Y-68433740D01*
X55529932Y-68146842D01*
X55417990Y-67876589D01*
X55361812Y-67792512D01*
X66377783Y-67792512D01*
X66419213Y-68072130D01*
X66514397Y-68338292D01*
X66581329Y-68463514D01*
X66825298Y-68535097D01*
X67638395Y-67722000D01*
X67997605Y-67722000D01*
X68810702Y-68535097D01*
X69054671Y-68463514D01*
X69175571Y-68208004D01*
X69244300Y-67933816D01*
X69258217Y-67651488D01*
X69216787Y-67371870D01*
X69121603Y-67105708D01*
X69054671Y-66980486D01*
X68810702Y-66908903D01*
X67997605Y-67722000D01*
X67638395Y-67722000D01*
X66825298Y-66908903D01*
X66581329Y-66980486D01*
X66460429Y-67235996D01*
X66391700Y-67510184D01*
X66377783Y-67792512D01*
X55361812Y-67792512D01*
X55255475Y-67633368D01*
X55048632Y-67426525D01*
X54874240Y-67310000D01*
X55048632Y-67193475D01*
X55255475Y-66986632D01*
X55417990Y-66743411D01*
X55529932Y-66473158D01*
X55587000Y-66186260D01*
X55587000Y-65893740D01*
X55529932Y-65606842D01*
X55417990Y-65336589D01*
X55255475Y-65093368D01*
X55048632Y-64886525D01*
X54874240Y-64770000D01*
X55048632Y-64653475D01*
X55255475Y-64446632D01*
X55417990Y-64203411D01*
X55529932Y-63933158D01*
X55537298Y-63896123D01*
X58000821Y-63896123D01*
X58110558Y-64218054D01*
X58280992Y-64512391D01*
X58505573Y-64767822D01*
X58775671Y-64974531D01*
X59080906Y-65124575D01*
X59293878Y-65189175D01*
X59563000Y-65071125D01*
X59563000Y-63627000D01*
X59817000Y-63627000D01*
X59817000Y-65071125D01*
X60086122Y-65189175D01*
X60299094Y-65124575D01*
X60604329Y-64974531D01*
X60874427Y-64767822D01*
X61099008Y-64512391D01*
X61269442Y-64218054D01*
X61379179Y-63896123D01*
X61261600Y-63627000D01*
X59817000Y-63627000D01*
X59563000Y-63627000D01*
X58118400Y-63627000D01*
X58000821Y-63896123D01*
X55537298Y-63896123D01*
X55587000Y-63646260D01*
X55587000Y-63353740D01*
X55537299Y-63103877D01*
X58000821Y-63103877D01*
X58118400Y-63373000D01*
X59563000Y-63373000D01*
X59563000Y-61928875D01*
X59817000Y-61928875D01*
X59817000Y-63373000D01*
X61261600Y-63373000D01*
X61267862Y-63358665D01*
X62065000Y-63358665D01*
X62065000Y-63641335D01*
X62120147Y-63918574D01*
X62228320Y-64179727D01*
X62385363Y-64414759D01*
X62585241Y-64614637D01*
X62820273Y-64771680D01*
X63081426Y-64879853D01*
X63358665Y-64935000D01*
X63641335Y-64935000D01*
X63918574Y-64879853D01*
X64179727Y-64771680D01*
X64414759Y-64614637D01*
X64614637Y-64414759D01*
X64771680Y-64179727D01*
X64879853Y-63918574D01*
X64935000Y-63641335D01*
X64935000Y-63358665D01*
X64879853Y-63081426D01*
X64771680Y-62820273D01*
X64614637Y-62585241D01*
X64414759Y-62385363D01*
X64179727Y-62228320D01*
X63918574Y-62120147D01*
X63641335Y-62065000D01*
X63358665Y-62065000D01*
X63081426Y-62120147D01*
X62820273Y-62228320D01*
X62585241Y-62385363D01*
X62385363Y-62585241D01*
X62228320Y-62820273D01*
X62120147Y-63081426D01*
X62065000Y-63358665D01*
X61267862Y-63358665D01*
X61379179Y-63103877D01*
X61269442Y-62781946D01*
X61099008Y-62487609D01*
X60874427Y-62232178D01*
X60604329Y-62025469D01*
X60299094Y-61875425D01*
X60086122Y-61810825D01*
X59817000Y-61928875D01*
X59563000Y-61928875D01*
X59293878Y-61810825D01*
X59080906Y-61875425D01*
X58775671Y-62025469D01*
X58505573Y-62232178D01*
X58280992Y-62487609D01*
X58110558Y-62781946D01*
X58000821Y-63103877D01*
X55537299Y-63103877D01*
X55529932Y-63066842D01*
X55417990Y-62796589D01*
X55255475Y-62553368D01*
X55048632Y-62346525D01*
X54874240Y-62230000D01*
X55048632Y-62113475D01*
X55255475Y-61906632D01*
X55417990Y-61663411D01*
X55529932Y-61393158D01*
X55587000Y-61106260D01*
X55587000Y-60813740D01*
X55529932Y-60526842D01*
X55417990Y-60256589D01*
X55255475Y-60013368D01*
X55048632Y-59806525D01*
X54874240Y-59690000D01*
X55048632Y-59573475D01*
X55255475Y-59366632D01*
X55417990Y-59123411D01*
X55529932Y-58853158D01*
X55587000Y-58566260D01*
X55587000Y-58273740D01*
X55529932Y-57986842D01*
X55417990Y-57716589D01*
X55255475Y-57473368D01*
X55102107Y-57320000D01*
X57951928Y-57320000D01*
X57951928Y-59520000D01*
X57964188Y-59644482D01*
X58000498Y-59764180D01*
X58059463Y-59874494D01*
X58138815Y-59971185D01*
X58235506Y-60050537D01*
X58345820Y-60109502D01*
X58465518Y-60145812D01*
X58590000Y-60158072D01*
X60790000Y-60158072D01*
X60914482Y-60145812D01*
X61034180Y-60109502D01*
X61144494Y-60050537D01*
X61241185Y-59971185D01*
X61320537Y-59874494D01*
X61379502Y-59764180D01*
X61415812Y-59644482D01*
X61428072Y-59520000D01*
X61428072Y-58278665D01*
X62065000Y-58278665D01*
X62065000Y-58561335D01*
X62120147Y-58838574D01*
X62228320Y-59099727D01*
X62385363Y-59334759D01*
X62585241Y-59534637D01*
X62820273Y-59691680D01*
X63081426Y-59799853D01*
X63358665Y-59855000D01*
X63641335Y-59855000D01*
X63918574Y-59799853D01*
X64179727Y-59691680D01*
X64414759Y-59534637D01*
X64614637Y-59334759D01*
X64771680Y-59099727D01*
X64879853Y-58838574D01*
X64935000Y-58561335D01*
X64935000Y-58278665D01*
X64879853Y-58001426D01*
X64771680Y-57740273D01*
X64614637Y-57505241D01*
X64414759Y-57305363D01*
X64179727Y-57148320D01*
X63918574Y-57040147D01*
X63641335Y-56985000D01*
X63358665Y-56985000D01*
X63081426Y-57040147D01*
X62820273Y-57148320D01*
X62585241Y-57305363D01*
X62385363Y-57505241D01*
X62228320Y-57740273D01*
X62120147Y-58001426D01*
X62065000Y-58278665D01*
X61428072Y-58278665D01*
X61428072Y-57320000D01*
X61415812Y-57195518D01*
X61379502Y-57075820D01*
X61320537Y-56965506D01*
X61241185Y-56868815D01*
X61144494Y-56789463D01*
X61034180Y-56730498D01*
X60914482Y-56694188D01*
X60790000Y-56681928D01*
X58590000Y-56681928D01*
X58465518Y-56694188D01*
X58345820Y-56730498D01*
X58235506Y-56789463D01*
X58138815Y-56868815D01*
X58059463Y-56965506D01*
X58000498Y-57075820D01*
X57964188Y-57195518D01*
X57951928Y-57320000D01*
X55102107Y-57320000D01*
X55048632Y-57266525D01*
X54874240Y-57150000D01*
X55048632Y-57033475D01*
X55255475Y-56826632D01*
X55417990Y-56583411D01*
X55529932Y-56313158D01*
X55587000Y-56026260D01*
X55587000Y-55842000D01*
X66379928Y-55842000D01*
X66379928Y-57442000D01*
X66392188Y-57566482D01*
X66428498Y-57686180D01*
X66487463Y-57796494D01*
X66566815Y-57893185D01*
X66663506Y-57972537D01*
X66773820Y-58031502D01*
X66893518Y-58067812D01*
X67018000Y-58080072D01*
X67283725Y-58080072D01*
X67138273Y-58140320D01*
X66903241Y-58297363D01*
X66703363Y-58497241D01*
X66546320Y-58732273D01*
X66438147Y-58993426D01*
X66383000Y-59270665D01*
X66383000Y-59553335D01*
X66438147Y-59830574D01*
X66546320Y-60091727D01*
X66703363Y-60326759D01*
X66903241Y-60526637D01*
X67138273Y-60683680D01*
X67399426Y-60791853D01*
X67425301Y-60797000D01*
X67399426Y-60802147D01*
X67138273Y-60910320D01*
X66903241Y-61067363D01*
X66703363Y-61267241D01*
X66546320Y-61502273D01*
X66438147Y-61763426D01*
X66383000Y-62040665D01*
X66383000Y-62323335D01*
X66438147Y-62600574D01*
X66546320Y-62861727D01*
X66703363Y-63096759D01*
X66903241Y-63296637D01*
X67138273Y-63453680D01*
X67399426Y-63561853D01*
X67425301Y-63567000D01*
X67399426Y-63572147D01*
X67138273Y-63680320D01*
X66903241Y-63837363D01*
X66703363Y-64037241D01*
X66546320Y-64272273D01*
X66438147Y-64533426D01*
X66383000Y-64810665D01*
X66383000Y-65093335D01*
X66438147Y-65370574D01*
X66546320Y-65631727D01*
X66703363Y-65866759D01*
X66903241Y-66066637D01*
X67138273Y-66223680D01*
X67399426Y-66331853D01*
X67427882Y-66337513D01*
X67201708Y-66418397D01*
X67076486Y-66485329D01*
X67004903Y-66729298D01*
X67818000Y-67542395D01*
X68631097Y-66729298D01*
X68559514Y-66485329D01*
X68304004Y-66364429D01*
X68201711Y-66338788D01*
X68236574Y-66331853D01*
X68497727Y-66223680D01*
X68732759Y-66066637D01*
X68932637Y-65866759D01*
X69089680Y-65631727D01*
X69197853Y-65370574D01*
X69253000Y-65093335D01*
X69253000Y-64810665D01*
X69197853Y-64533426D01*
X69089680Y-64272273D01*
X68932637Y-64037241D01*
X68732759Y-63837363D01*
X68497727Y-63680320D01*
X68236574Y-63572147D01*
X68210699Y-63567000D01*
X68236574Y-63561853D01*
X68497727Y-63453680D01*
X68732759Y-63296637D01*
X68932637Y-63096759D01*
X69089680Y-62861727D01*
X69197853Y-62600574D01*
X69253000Y-62323335D01*
X69253000Y-62040665D01*
X69197853Y-61763426D01*
X69089680Y-61502273D01*
X68932637Y-61267241D01*
X68732759Y-61067363D01*
X68497727Y-60910320D01*
X68236574Y-60802147D01*
X68210699Y-60797000D01*
X68236574Y-60791853D01*
X68497727Y-60683680D01*
X68732759Y-60526637D01*
X68932637Y-60326759D01*
X69089680Y-60091727D01*
X69197853Y-59830574D01*
X69253000Y-59553335D01*
X69253000Y-59270665D01*
X69197853Y-58993426D01*
X69089680Y-58732273D01*
X68932637Y-58497241D01*
X68732759Y-58297363D01*
X68497727Y-58140320D01*
X68352275Y-58080072D01*
X68618000Y-58080072D01*
X68742482Y-58067812D01*
X68862180Y-58031502D01*
X68972494Y-57972537D01*
X69069185Y-57893185D01*
X69075356Y-57885665D01*
X69223000Y-57885665D01*
X69223000Y-58168335D01*
X69278147Y-58445574D01*
X69386320Y-58706727D01*
X69543363Y-58941759D01*
X69743241Y-59141637D01*
X69978273Y-59298680D01*
X70239426Y-59406853D01*
X70265301Y-59412000D01*
X70239426Y-59417147D01*
X69978273Y-59525320D01*
X69743241Y-59682363D01*
X69543363Y-59882241D01*
X69386320Y-60117273D01*
X69278147Y-60378426D01*
X69223000Y-60655665D01*
X69223000Y-60938335D01*
X69278147Y-61215574D01*
X69386320Y-61476727D01*
X69543363Y-61711759D01*
X69743241Y-61911637D01*
X69978273Y-62068680D01*
X70239426Y-62176853D01*
X70265301Y-62182000D01*
X70239426Y-62187147D01*
X69978273Y-62295320D01*
X69743241Y-62452363D01*
X69543363Y-62652241D01*
X69386320Y-62887273D01*
X69278147Y-63148426D01*
X69223000Y-63425665D01*
X69223000Y-63708335D01*
X69278147Y-63985574D01*
X69386320Y-64246727D01*
X69543363Y-64481759D01*
X69743241Y-64681637D01*
X69978273Y-64838680D01*
X70239426Y-64946853D01*
X70265301Y-64952000D01*
X70239426Y-64957147D01*
X69978273Y-65065320D01*
X69743241Y-65222363D01*
X69543363Y-65422241D01*
X69386320Y-65657273D01*
X69278147Y-65918426D01*
X69223000Y-66195665D01*
X69223000Y-66478335D01*
X69278147Y-66755574D01*
X69386320Y-67016727D01*
X69543363Y-67251759D01*
X69743241Y-67451637D01*
X69978273Y-67608680D01*
X70239426Y-67716853D01*
X70516665Y-67772000D01*
X70799335Y-67772000D01*
X71076574Y-67716853D01*
X71337727Y-67608680D01*
X71572759Y-67451637D01*
X71772637Y-67251759D01*
X71929680Y-67016727D01*
X72037853Y-66755574D01*
X72093000Y-66478335D01*
X72093000Y-66195665D01*
X72037853Y-65918426D01*
X71929680Y-65657273D01*
X71772637Y-65422241D01*
X71572759Y-65222363D01*
X71337727Y-65065320D01*
X71076574Y-64957147D01*
X71050699Y-64952000D01*
X71076574Y-64946853D01*
X71337727Y-64838680D01*
X71572759Y-64681637D01*
X71772637Y-64481759D01*
X71929680Y-64246727D01*
X72037853Y-63985574D01*
X72093000Y-63708335D01*
X72093000Y-63425665D01*
X72037853Y-63148426D01*
X71929680Y-62887273D01*
X71772637Y-62652241D01*
X71572759Y-62452363D01*
X71337727Y-62295320D01*
X71076574Y-62187147D01*
X71050699Y-62182000D01*
X71076574Y-62176853D01*
X71337727Y-62068680D01*
X71572759Y-61911637D01*
X71772637Y-61711759D01*
X71929680Y-61476727D01*
X72037853Y-61215574D01*
X72093000Y-60938335D01*
X72093000Y-60655665D01*
X72037853Y-60378426D01*
X71929680Y-60117273D01*
X71772637Y-59882241D01*
X71572759Y-59682363D01*
X71337727Y-59525320D01*
X71076574Y-59417147D01*
X71050699Y-59412000D01*
X71076574Y-59406853D01*
X71337727Y-59298680D01*
X71572759Y-59141637D01*
X71772637Y-58941759D01*
X71929680Y-58706727D01*
X72037853Y-58445574D01*
X72093000Y-58168335D01*
X72093000Y-57885665D01*
X72037853Y-57608426D01*
X71929680Y-57347273D01*
X71772637Y-57112241D01*
X71572759Y-56912363D01*
X71337727Y-56755320D01*
X71076574Y-56647147D01*
X70799335Y-56592000D01*
X70516665Y-56592000D01*
X70239426Y-56647147D01*
X69978273Y-56755320D01*
X69743241Y-56912363D01*
X69543363Y-57112241D01*
X69386320Y-57347273D01*
X69278147Y-57608426D01*
X69223000Y-57885665D01*
X69075356Y-57885665D01*
X69148537Y-57796494D01*
X69207502Y-57686180D01*
X69243812Y-57566482D01*
X69256072Y-57442000D01*
X69256072Y-55842000D01*
X69243812Y-55717518D01*
X69207502Y-55597820D01*
X69148537Y-55487506D01*
X69069185Y-55390815D01*
X68972494Y-55311463D01*
X68862180Y-55252498D01*
X68742482Y-55216188D01*
X68618000Y-55203928D01*
X67018000Y-55203928D01*
X66893518Y-55216188D01*
X66773820Y-55252498D01*
X66663506Y-55311463D01*
X66566815Y-55390815D01*
X66487463Y-55487506D01*
X66428498Y-55597820D01*
X66392188Y-55717518D01*
X66379928Y-55842000D01*
X55587000Y-55842000D01*
X55587000Y-55733740D01*
X55529932Y-55446842D01*
X55417990Y-55176589D01*
X55255475Y-54933368D01*
X55048632Y-54726525D01*
X54874240Y-54610000D01*
X55048632Y-54493475D01*
X55255475Y-54286632D01*
X55417990Y-54043411D01*
X55529932Y-53773158D01*
X55587000Y-53486260D01*
X55587000Y-53193740D01*
X55529932Y-52906842D01*
X55417990Y-52636589D01*
X55255475Y-52393368D01*
X55048632Y-52186525D01*
X54874240Y-52070000D01*
X55048632Y-51953475D01*
X55255475Y-51746632D01*
X55417990Y-51503411D01*
X55529932Y-51233158D01*
X55587000Y-50946260D01*
X55587000Y-50653740D01*
X55529932Y-50366842D01*
X55417990Y-50096589D01*
X55255475Y-49853368D01*
X55048632Y-49646525D01*
X54805411Y-49484010D01*
X54535158Y-49372068D01*
X54248260Y-49315000D01*
X53955740Y-49315000D01*
X53668842Y-49372068D01*
X53398589Y-49484010D01*
X53155368Y-49646525D01*
X52968285Y-49833608D01*
X52900405Y-49706614D01*
X52789962Y-49572038D01*
X52655386Y-49461595D01*
X52501850Y-49379528D01*
X52335254Y-49328992D01*
X52162000Y-49311928D01*
X50962000Y-49311928D01*
X50788746Y-49328992D01*
X50622150Y-49379528D01*
X50468614Y-49461595D01*
X50334038Y-49572038D01*
X50223595Y-49706614D01*
X50141528Y-49860150D01*
X50090992Y-50026746D01*
X50073928Y-50200000D01*
X47396000Y-50200000D01*
X47396000Y-48656123D01*
X58000821Y-48656123D01*
X58110558Y-48978054D01*
X58280992Y-49272391D01*
X58505573Y-49527822D01*
X58775671Y-49734531D01*
X59080906Y-49884575D01*
X59293878Y-49949175D01*
X59563000Y-49831125D01*
X59563000Y-48387000D01*
X59817000Y-48387000D01*
X59817000Y-49831125D01*
X60086122Y-49949175D01*
X60299094Y-49884575D01*
X60604329Y-49734531D01*
X60874427Y-49527822D01*
X61099008Y-49272391D01*
X61269442Y-48978054D01*
X61379179Y-48656123D01*
X61261600Y-48387000D01*
X59817000Y-48387000D01*
X59563000Y-48387000D01*
X58118400Y-48387000D01*
X58000821Y-48656123D01*
X47396000Y-48656123D01*
X47396000Y-47863877D01*
X58000821Y-47863877D01*
X58118400Y-48133000D01*
X59563000Y-48133000D01*
X59563000Y-46688875D01*
X59817000Y-46688875D01*
X59817000Y-48133000D01*
X61261600Y-48133000D01*
X61267862Y-48118665D01*
X62065000Y-48118665D01*
X62065000Y-48401335D01*
X62120147Y-48678574D01*
X62228320Y-48939727D01*
X62385363Y-49174759D01*
X62585241Y-49374637D01*
X62820273Y-49531680D01*
X63081426Y-49639853D01*
X63358665Y-49695000D01*
X63641335Y-49695000D01*
X63918574Y-49639853D01*
X64179727Y-49531680D01*
X64343164Y-49422475D01*
X66603000Y-49422475D01*
X66603000Y-49941525D01*
X66704261Y-50450601D01*
X66902893Y-50930141D01*
X67191262Y-51361715D01*
X67558285Y-51728738D01*
X67989859Y-52017107D01*
X68469399Y-52215739D01*
X68978475Y-52317000D01*
X69497525Y-52317000D01*
X70006601Y-52215739D01*
X70486141Y-52017107D01*
X70917715Y-51728738D01*
X71284738Y-51361715D01*
X71573107Y-50930141D01*
X71771739Y-50450601D01*
X71873000Y-49941525D01*
X71873000Y-49422475D01*
X71771739Y-48913399D01*
X71573107Y-48433859D01*
X71284738Y-48002285D01*
X70917715Y-47635262D01*
X70486141Y-47346893D01*
X70006601Y-47148261D01*
X69497525Y-47047000D01*
X68978475Y-47047000D01*
X68469399Y-47148261D01*
X67989859Y-47346893D01*
X67558285Y-47635262D01*
X67191262Y-48002285D01*
X66902893Y-48433859D01*
X66704261Y-48913399D01*
X66603000Y-49422475D01*
X64343164Y-49422475D01*
X64414759Y-49374637D01*
X64614637Y-49174759D01*
X64771680Y-48939727D01*
X64879853Y-48678574D01*
X64935000Y-48401335D01*
X64935000Y-48118665D01*
X64879853Y-47841426D01*
X64771680Y-47580273D01*
X64614637Y-47345241D01*
X64414759Y-47145363D01*
X64179727Y-46988320D01*
X63918574Y-46880147D01*
X63641335Y-46825000D01*
X63358665Y-46825000D01*
X63081426Y-46880147D01*
X62820273Y-46988320D01*
X62585241Y-47145363D01*
X62385363Y-47345241D01*
X62228320Y-47580273D01*
X62120147Y-47841426D01*
X62065000Y-48118665D01*
X61267862Y-48118665D01*
X61379179Y-47863877D01*
X61269442Y-47541946D01*
X61099008Y-47247609D01*
X60874427Y-46992178D01*
X60604329Y-46785469D01*
X60299094Y-46635425D01*
X60086122Y-46570825D01*
X59817000Y-46688875D01*
X59563000Y-46688875D01*
X59293878Y-46570825D01*
X59080906Y-46635425D01*
X58775671Y-46785469D01*
X58505573Y-46992178D01*
X58280992Y-47247609D01*
X58110558Y-47541946D01*
X58000821Y-47863877D01*
X47396000Y-47863877D01*
X47396000Y-45745000D01*
X78080000Y-45745000D01*
X78080001Y-78715000D01*
G37*
%TD.AperFunction*%
%TD*%
M02*
