%TF.GenerationSoftware,KiCad,Pcbnew,(5.1.7-0-10_14)*%
%TF.CreationDate,2020-10-13T23:49:25+02:00*%
%TF.ProjectId,UPURS Adapter,55505552-5320-4416-9461-707465722e6b,rev?*%
%TF.SameCoordinates,Original*%
%TF.FileFunction,Legend,Bot*%
%TF.FilePolarity,Positive*%
%FSLAX46Y46*%
G04 Gerber Fmt 4.6, Leading zero omitted, Abs format (unit mm)*
G04 Created by KiCad (PCBNEW (5.1.7-0-10_14)) date 2020-10-13 23:49:25*
%MOMM*%
%LPD*%
G01*
G04 APERTURE LIST*
%ADD10C,0.150000*%
%TA.AperFunction,Profile*%
%ADD11C,0.050000*%
%TD*%
G04 APERTURE END LIST*
D10*
X73890666Y-52991904D02*
X73890666Y-53468095D01*
X74176380Y-52896666D02*
X73176380Y-53230000D01*
X74176380Y-53563333D01*
X74081142Y-54468095D02*
X74128761Y-54420476D01*
X74176380Y-54277619D01*
X74176380Y-54182380D01*
X74128761Y-54039523D01*
X74033523Y-53944285D01*
X73938285Y-53896666D01*
X73747809Y-53849047D01*
X73604952Y-53849047D01*
X73414476Y-53896666D01*
X73319238Y-53944285D01*
X73224000Y-54039523D01*
X73176380Y-54182380D01*
X73176380Y-54277619D01*
X73224000Y-54420476D01*
X73271619Y-54468095D01*
X73176380Y-55087142D02*
X73176380Y-55277619D01*
X73224000Y-55372857D01*
X73319238Y-55468095D01*
X73509714Y-55515714D01*
X73843047Y-55515714D01*
X74033523Y-55468095D01*
X74128761Y-55372857D01*
X74176380Y-55277619D01*
X74176380Y-55087142D01*
X74128761Y-54991904D01*
X74033523Y-54896666D01*
X73843047Y-54849047D01*
X73509714Y-54849047D01*
X73319238Y-54896666D01*
X73224000Y-54991904D01*
X73176380Y-55087142D01*
X74176380Y-56515714D02*
X73700190Y-56182380D01*
X74176380Y-55944285D02*
X73176380Y-55944285D01*
X73176380Y-56325238D01*
X73224000Y-56420476D01*
X73271619Y-56468095D01*
X73366857Y-56515714D01*
X73509714Y-56515714D01*
X73604952Y-56468095D01*
X73652571Y-56420476D01*
X73700190Y-56325238D01*
X73700190Y-55944285D01*
X74176380Y-56944285D02*
X73176380Y-56944285D01*
X74176380Y-57515714D01*
X73176380Y-57515714D01*
X74033523Y-58849047D02*
X73747809Y-58610952D01*
X74033523Y-58420476D02*
X73366857Y-58420476D01*
X73366857Y-58706190D01*
X73414476Y-58801428D01*
X73509714Y-58849047D01*
X73604952Y-58849047D01*
X73700190Y-58801428D01*
X73747809Y-58706190D01*
X73747809Y-58420476D01*
X73033523Y-58610952D02*
X73081142Y-58372857D01*
X73224000Y-58134761D01*
X73462095Y-57991904D01*
X73700190Y-57944285D01*
X73938285Y-57991904D01*
X74176380Y-58134761D01*
X74319238Y-58372857D01*
X74366857Y-58610952D01*
X74319238Y-58849047D01*
X74176380Y-59087142D01*
X73938285Y-59230000D01*
X73700190Y-59277619D01*
X73462095Y-59230000D01*
X73224000Y-59087142D01*
X73081142Y-58849047D01*
X73033523Y-58610952D01*
X73176380Y-60468095D02*
X73985904Y-60468095D01*
X74081142Y-60515714D01*
X74128761Y-60563333D01*
X74176380Y-60658571D01*
X74176380Y-60849047D01*
X74128761Y-60944285D01*
X74081142Y-60991904D01*
X73985904Y-61039523D01*
X73176380Y-61039523D01*
X74176380Y-61515714D02*
X73176380Y-61515714D01*
X73176380Y-61896666D01*
X73224000Y-61991904D01*
X73271619Y-62039523D01*
X73366857Y-62087142D01*
X73509714Y-62087142D01*
X73604952Y-62039523D01*
X73652571Y-61991904D01*
X73700190Y-61896666D01*
X73700190Y-61515714D01*
X73176380Y-62515714D02*
X73985904Y-62515714D01*
X74081142Y-62563333D01*
X74128761Y-62610952D01*
X74176380Y-62706190D01*
X74176380Y-62896666D01*
X74128761Y-62991904D01*
X74081142Y-63039523D01*
X73985904Y-63087142D01*
X73176380Y-63087142D01*
X74176380Y-64134761D02*
X73700190Y-63801428D01*
X74176380Y-63563333D02*
X73176380Y-63563333D01*
X73176380Y-63944285D01*
X73224000Y-64039523D01*
X73271619Y-64087142D01*
X73366857Y-64134761D01*
X73509714Y-64134761D01*
X73604952Y-64087142D01*
X73652571Y-64039523D01*
X73700190Y-63944285D01*
X73700190Y-63563333D01*
X74128761Y-64515714D02*
X74176380Y-64658571D01*
X74176380Y-64896666D01*
X74128761Y-64991904D01*
X74081142Y-65039523D01*
X73985904Y-65087142D01*
X73890666Y-65087142D01*
X73795428Y-65039523D01*
X73747809Y-64991904D01*
X73700190Y-64896666D01*
X73652571Y-64706190D01*
X73604952Y-64610952D01*
X73557333Y-64563333D01*
X73462095Y-64515714D01*
X73366857Y-64515714D01*
X73271619Y-64563333D01*
X73224000Y-64610952D01*
X73176380Y-64706190D01*
X73176380Y-64944285D01*
X73224000Y-65087142D01*
X73890666Y-66230000D02*
X73890666Y-66706190D01*
X74176380Y-66134761D02*
X73176380Y-66468095D01*
X74176380Y-66801428D01*
X74176380Y-67563333D02*
X73176380Y-67563333D01*
X74128761Y-67563333D02*
X74176380Y-67468095D01*
X74176380Y-67277619D01*
X74128761Y-67182380D01*
X74081142Y-67134761D01*
X73985904Y-67087142D01*
X73700190Y-67087142D01*
X73604952Y-67134761D01*
X73557333Y-67182380D01*
X73509714Y-67277619D01*
X73509714Y-67468095D01*
X73557333Y-67563333D01*
X74176380Y-68468095D02*
X73652571Y-68468095D01*
X73557333Y-68420476D01*
X73509714Y-68325238D01*
X73509714Y-68134761D01*
X73557333Y-68039523D01*
X74128761Y-68468095D02*
X74176380Y-68372857D01*
X74176380Y-68134761D01*
X74128761Y-68039523D01*
X74033523Y-67991904D01*
X73938285Y-67991904D01*
X73843047Y-68039523D01*
X73795428Y-68134761D01*
X73795428Y-68372857D01*
X73747809Y-68468095D01*
X73509714Y-68944285D02*
X74509714Y-68944285D01*
X73557333Y-68944285D02*
X73509714Y-69039523D01*
X73509714Y-69230000D01*
X73557333Y-69325238D01*
X73604952Y-69372857D01*
X73700190Y-69420476D01*
X73985904Y-69420476D01*
X74081142Y-69372857D01*
X74128761Y-69325238D01*
X74176380Y-69230000D01*
X74176380Y-69039523D01*
X74128761Y-68944285D01*
X73509714Y-69706190D02*
X73509714Y-70087142D01*
X73176380Y-69849047D02*
X74033523Y-69849047D01*
X74128761Y-69896666D01*
X74176380Y-69991904D01*
X74176380Y-70087142D01*
X74128761Y-70801428D02*
X74176380Y-70706190D01*
X74176380Y-70515714D01*
X74128761Y-70420476D01*
X74033523Y-70372857D01*
X73652571Y-70372857D01*
X73557333Y-70420476D01*
X73509714Y-70515714D01*
X73509714Y-70706190D01*
X73557333Y-70801428D01*
X73652571Y-70849047D01*
X73747809Y-70849047D01*
X73843047Y-70372857D01*
X74176380Y-71277619D02*
X73509714Y-71277619D01*
X73700190Y-71277619D02*
X73604952Y-71325238D01*
X73557333Y-71372857D01*
X73509714Y-71468095D01*
X73509714Y-71563333D01*
X75826380Y-49253809D02*
X74826380Y-49253809D01*
X75540666Y-49587142D01*
X74826380Y-49920476D01*
X75826380Y-49920476D01*
X75826380Y-50825238D02*
X75302571Y-50825238D01*
X75207333Y-50777619D01*
X75159714Y-50682380D01*
X75159714Y-50491904D01*
X75207333Y-50396666D01*
X75778761Y-50825238D02*
X75826380Y-50730000D01*
X75826380Y-50491904D01*
X75778761Y-50396666D01*
X75683523Y-50349047D01*
X75588285Y-50349047D01*
X75493047Y-50396666D01*
X75445428Y-50491904D01*
X75445428Y-50730000D01*
X75397809Y-50825238D01*
X75826380Y-51301428D02*
X75159714Y-51301428D01*
X75350190Y-51301428D02*
X75254952Y-51349047D01*
X75207333Y-51396666D01*
X75159714Y-51491904D01*
X75159714Y-51587142D01*
X75159714Y-51777619D02*
X75159714Y-52158571D01*
X74826380Y-51920476D02*
X75683523Y-51920476D01*
X75778761Y-51968095D01*
X75826380Y-52063333D01*
X75826380Y-52158571D01*
X75826380Y-52491904D02*
X75159714Y-52491904D01*
X74826380Y-52491904D02*
X74874000Y-52444285D01*
X74921619Y-52491904D01*
X74874000Y-52539523D01*
X74826380Y-52491904D01*
X74921619Y-52491904D01*
X75159714Y-52968095D02*
X75826380Y-52968095D01*
X75254952Y-52968095D02*
X75207333Y-53015714D01*
X75159714Y-53110952D01*
X75159714Y-53253809D01*
X75207333Y-53349047D01*
X75302571Y-53396666D01*
X75826380Y-53396666D01*
X75302571Y-54206190D02*
X75350190Y-54349047D01*
X75397809Y-54396666D01*
X75493047Y-54444285D01*
X75635904Y-54444285D01*
X75731142Y-54396666D01*
X75778761Y-54349047D01*
X75826380Y-54253809D01*
X75826380Y-53872857D01*
X74826380Y-53872857D01*
X74826380Y-54206190D01*
X74874000Y-54301428D01*
X74921619Y-54349047D01*
X75016857Y-54396666D01*
X75112095Y-54396666D01*
X75207333Y-54349047D01*
X75254952Y-54301428D01*
X75302571Y-54206190D01*
X75302571Y-53872857D01*
X75826380Y-57920476D02*
X74826380Y-57920476D01*
X75826380Y-58349047D02*
X75302571Y-58349047D01*
X75207333Y-58301428D01*
X75159714Y-58206190D01*
X75159714Y-58063333D01*
X75207333Y-57968095D01*
X75254952Y-57920476D01*
X75159714Y-58682380D02*
X75159714Y-59063333D01*
X74826380Y-58825238D02*
X75683523Y-58825238D01*
X75778761Y-58872857D01*
X75826380Y-58968095D01*
X75826380Y-59063333D01*
X75159714Y-59253809D02*
X75159714Y-59634761D01*
X74826380Y-59396666D02*
X75683523Y-59396666D01*
X75778761Y-59444285D01*
X75826380Y-59539523D01*
X75826380Y-59634761D01*
X75159714Y-59968095D02*
X76159714Y-59968095D01*
X75207333Y-59968095D02*
X75159714Y-60063333D01*
X75159714Y-60253809D01*
X75207333Y-60349047D01*
X75254952Y-60396666D01*
X75350190Y-60444285D01*
X75635904Y-60444285D01*
X75731142Y-60396666D01*
X75778761Y-60349047D01*
X75826380Y-60253809D01*
X75826380Y-60063333D01*
X75778761Y-59968095D01*
X75778761Y-60825238D02*
X75826380Y-60920476D01*
X75826380Y-61110952D01*
X75778761Y-61206190D01*
X75683523Y-61253809D01*
X75635904Y-61253809D01*
X75540666Y-61206190D01*
X75493047Y-61110952D01*
X75493047Y-60968095D01*
X75445428Y-60872857D01*
X75350190Y-60825238D01*
X75302571Y-60825238D01*
X75207333Y-60872857D01*
X75159714Y-60968095D01*
X75159714Y-61110952D01*
X75207333Y-61206190D01*
X75731142Y-61682380D02*
X75778761Y-61729999D01*
X75826380Y-61682380D01*
X75778761Y-61634761D01*
X75731142Y-61682380D01*
X75826380Y-61682380D01*
X75207333Y-61682380D02*
X75254952Y-61729999D01*
X75302571Y-61682380D01*
X75254952Y-61634761D01*
X75207333Y-61682380D01*
X75302571Y-61682380D01*
X74778761Y-62872857D02*
X76064476Y-62015714D01*
X74778761Y-63920476D02*
X76064476Y-63063333D01*
X75778761Y-64206190D02*
X75826380Y-64301428D01*
X75826380Y-64491904D01*
X75778761Y-64587142D01*
X75683523Y-64634761D01*
X75635904Y-64634761D01*
X75540666Y-64587142D01*
X75493047Y-64491904D01*
X75493047Y-64349047D01*
X75445428Y-64253809D01*
X75350190Y-64206190D01*
X75302571Y-64206190D01*
X75207333Y-64253809D01*
X75159714Y-64349047D01*
X75159714Y-64491904D01*
X75207333Y-64587142D01*
X75159714Y-64920476D02*
X75159714Y-65301428D01*
X74826380Y-65063333D02*
X75683523Y-65063333D01*
X75778761Y-65110952D01*
X75826380Y-65206190D01*
X75826380Y-65301428D01*
X75826380Y-66063333D02*
X75302571Y-66063333D01*
X75207333Y-66015714D01*
X75159714Y-65920476D01*
X75159714Y-65729999D01*
X75207333Y-65634761D01*
X75778761Y-66063333D02*
X75826380Y-65968095D01*
X75826380Y-65729999D01*
X75778761Y-65634761D01*
X75683523Y-65587142D01*
X75588285Y-65587142D01*
X75493047Y-65634761D01*
X75445428Y-65729999D01*
X75445428Y-65968095D01*
X75397809Y-66063333D01*
X75826380Y-66539523D02*
X75159714Y-66539523D01*
X75350190Y-66539523D02*
X75254952Y-66587142D01*
X75207333Y-66634761D01*
X75159714Y-66729999D01*
X75159714Y-66825238D01*
X75826380Y-67587142D02*
X74826380Y-67587142D01*
X75778761Y-67587142D02*
X75826380Y-67491904D01*
X75826380Y-67301428D01*
X75778761Y-67206190D01*
X75731142Y-67158571D01*
X75635904Y-67110952D01*
X75350190Y-67110952D01*
X75254952Y-67158571D01*
X75207333Y-67206190D01*
X75159714Y-67301428D01*
X75159714Y-67491904D01*
X75207333Y-67587142D01*
X75826380Y-68206190D02*
X75778761Y-68110952D01*
X75731142Y-68063333D01*
X75635904Y-68015714D01*
X75350190Y-68015714D01*
X75254952Y-68063333D01*
X75207333Y-68110952D01*
X75159714Y-68206190D01*
X75159714Y-68349047D01*
X75207333Y-68444285D01*
X75254952Y-68491904D01*
X75350190Y-68539523D01*
X75635904Y-68539523D01*
X75731142Y-68491904D01*
X75778761Y-68444285D01*
X75826380Y-68349047D01*
X75826380Y-68206190D01*
X75159714Y-68825238D02*
X75159714Y-69206190D01*
X74826380Y-68968095D02*
X75683523Y-68968095D01*
X75778761Y-69015714D01*
X75826380Y-69110952D01*
X75826380Y-69206190D01*
X75731142Y-69539523D02*
X75778761Y-69587142D01*
X75826380Y-69539523D01*
X75778761Y-69491904D01*
X75731142Y-69539523D01*
X75826380Y-69539523D01*
X75826380Y-70158571D02*
X75778761Y-70063333D01*
X75731142Y-70015714D01*
X75635904Y-69968095D01*
X75350190Y-69968095D01*
X75254952Y-70015714D01*
X75207333Y-70063333D01*
X75159714Y-70158571D01*
X75159714Y-70301428D01*
X75207333Y-70396666D01*
X75254952Y-70444285D01*
X75350190Y-70491904D01*
X75635904Y-70491904D01*
X75731142Y-70444285D01*
X75778761Y-70396666D01*
X75826380Y-70301428D01*
X75826380Y-70158571D01*
X75826380Y-70920476D02*
X75159714Y-70920476D01*
X75350190Y-70920476D02*
X75254952Y-70968095D01*
X75207333Y-71015714D01*
X75159714Y-71110952D01*
X75159714Y-71206190D01*
X75159714Y-71968095D02*
X75969238Y-71968095D01*
X76064476Y-71920476D01*
X76112095Y-71872857D01*
X76159714Y-71777619D01*
X76159714Y-71634761D01*
X76112095Y-71539523D01*
X75778761Y-71968095D02*
X75826380Y-71872857D01*
X75826380Y-71682380D01*
X75778761Y-71587142D01*
X75731142Y-71539523D01*
X75635904Y-71491904D01*
X75350190Y-71491904D01*
X75254952Y-71539523D01*
X75207333Y-71587142D01*
X75159714Y-71682380D01*
X75159714Y-71872857D01*
X75207333Y-71968095D01*
X75731142Y-72444285D02*
X75778761Y-72491904D01*
X75826380Y-72444285D01*
X75778761Y-72396666D01*
X75731142Y-72444285D01*
X75826380Y-72444285D01*
X75159714Y-73349047D02*
X75826380Y-73349047D01*
X75159714Y-72920476D02*
X75683523Y-72920476D01*
X75778761Y-72968095D01*
X75826380Y-73063333D01*
X75826380Y-73206190D01*
X75778761Y-73301428D01*
X75731142Y-73349047D01*
X75826380Y-73825238D02*
X74826380Y-73825238D01*
X75445428Y-73920476D02*
X75826380Y-74206190D01*
X75159714Y-74206190D02*
X75540666Y-73825238D01*
X74778761Y-75349047D02*
X76064476Y-74491904D01*
D11*
X46736000Y-79375000D02*
X46736000Y-45085000D01*
X78740000Y-79375000D02*
X46736000Y-79375000D01*
X78740000Y-45085000D02*
X78740000Y-79375000D01*
X46736000Y-45085000D02*
X78740000Y-45085000D01*
M02*
