M48
; DRILL file {KiCad (5.1.7-0-10_14)} date Tuesday, October 13, 2020 at 11:50:03 PM
; FORMAT={-:-/ absolute / metric / decimal}
; #@! TF.CreationDate,2020-10-13T23:50:03+02:00
; #@! TF.GenerationSoftware,Kicad,Pcbnew,(5.1.7-0-10_14)
FMAT,2
METRIC
T1C0.800
T2C1.000
T3C1.100
T4C3.200
%
G90
G05
T1
X63.5Y-63.5
X63.5Y-73.66
X63.5Y-48.26
X63.5Y-58.42
T2
X67.818Y-56.642
X67.818Y-59.412
X67.818Y-62.182
X67.818Y-64.952
X67.818Y-67.722
X70.658Y-58.027
X70.658Y-60.797
X70.658Y-63.567
X70.658Y-66.337
X51.562Y-50.8
X51.562Y-53.34
X51.562Y-55.88
X51.562Y-58.42
X51.562Y-60.96
X51.562Y-63.5
X51.562Y-66.04
X51.562Y-68.58
X51.562Y-71.12
X51.562Y-73.66
X54.102Y-50.8
X54.102Y-53.34
X54.102Y-55.88
X54.102Y-58.42
X54.102Y-60.96
X54.102Y-63.5
X54.102Y-66.04
X54.102Y-68.58
X54.102Y-71.12
X54.102Y-73.66
T3
X59.69Y-48.26
X59.69Y-58.42
X59.69Y-63.5
X59.69Y-73.66
T4
X69.238Y-49.682
X69.238Y-74.682
T0
M30
